<?xml version="1.0" encoding="iso-8859-1"?>
<!-- Generator: Adobe Illustrator 19.0.0, SVG Export Plug-In . SVG Version: 6.00 Build 0)  -->
<svg version="1.1" id="Layer_1" xmlns="http://www.w3.org/2000/svg" xmlns:xlink="http://www.w3.org/1999/xlink" x="0px" y="0px"
	 viewBox="0 0 512 512" style="enable-background:new 0 0 512 512;" xml:space="preserve">
<g>
	<g>
		<path d="M316.281,288.589v127.863h127.864V288.589H316.281z M428.51,400.817h-96.595v-96.594h96.595V400.817z"/>
	</g>
</g>
<g>
	<g>
		<polygon points="406.75,322.944 372.197,357.497 361.693,346.993 350.636,358.048 372.197,379.608 417.807,333.999 		"/>
	</g>
</g>
<g>
	<g>
		<path d="M131.905,0v79.765h200.01V0H131.905z M316.281,64.131H147.54V15.635h168.741V64.131z"/>
	</g>
</g>
<g>
	<g>
		<polygon points="339.9,31.492 339.9,47.126 379.508,47.126 379.508,280.605 395.143,280.605 395.143,31.492 		"/>
	</g>
</g>
<g>
	<g>
		<polygon points="379.508,425.488 379.508,496.365 83.49,496.365 83.49,47.126 124.14,47.126 124.14,31.492 67.855,31.492 
			67.855,512 395.143,512 395.143,425.488 		"/>
	</g>
</g>
<g>
	<g>
		<polygon points="300.292,87.777 300.292,127.385 163.748,127.385 163.748,87.777 139.775,87.777 139.775,103.411 148.113,103.411 
			148.113,143.02 315.926,143.02 315.926,103.411 324.265,103.411 324.265,87.777 		"/>
	</g>
</g>
<g>
	<g>
		<rect x="163.748" y="31.488" width="15.635" height="15.635"/>
	</g>
</g>
<g>
	<g>
		<rect x="283.615" y="31.488" width="15.635" height="15.635"/>
	</g>
</g>
<g>
	<g>
		<rect x="195.018" y="31.488" width="72.962" height="15.635"/>
	</g>
</g>
<g>
	<g>
		<polygon points="324.265,104.454 324.265,120.089 348.238,120.089 348.238,280.605 363.873,280.605 363.873,104.454 		"/>
	</g>
</g>
<g>
	<g>
		<polygon points="348.238,425.488 348.238,456.757 114.759,456.757 114.759,120.089 139.775,120.089 139.775,104.454 
			99.124,104.454 99.124,472.392 363.873,472.392 363.873,425.488 		"/>
	</g>
</g>
<g>
	<g>
		<rect x="172.087" y="104.451" width="119.867" height="15.635"/>
	</g>
</g>
<g>
	<g>
		<rect x="139.775" y="176.371" width="119.867" height="15.635"/>
	</g>
</g>
<g>
	<g>
		<rect x="308.63" y="176.371" width="23.973" height="15.635"/>
	</g>
</g>
<g>
	<g>
		<rect x="139.775" y="207.64" width="15.635" height="15.635"/>
	</g>
</g>
<g>
	<g>
		<rect x="139.775" y="232.656" width="15.635" height="15.635"/>
	</g>
</g>
<g>
	<g>
		<rect x="139.775" y="256.629" width="15.635" height="15.635"/>
	</g>
</g>
<g>
	<g>
		<rect x="139.775" y="280.602" width="15.635" height="15.635"/>
	</g>
</g>
<g>
	<g>
		<rect x="139.775" y="304.576" width="15.635" height="15.635"/>
	</g>
</g>
<g>
	<g>
		<rect x="139.775" y="329.591" width="15.635" height="15.635"/>
	</g>
</g>
<g>
	<g>
		<rect x="172.087" y="207.64" width="39.608" height="15.635"/>
	</g>
</g>
<g>
	<g>
		<rect x="172.087" y="232.656" width="56.285" height="15.635"/>
	</g>
</g>
<g>
	<g>
		<rect x="172.087" y="256.629" width="15.635" height="15.635"/>
	</g>
</g>
<g>
	<g>
		<rect x="172.087" y="280.602" width="80.258" height="15.635"/>
	</g>
</g>
<g>
	<g>
		<rect x="172.087" y="304.576" width="39.608" height="15.635"/>
	</g>
</g>
<g>
	<g>
		<rect x="172.087" y="329.591" width="56.285" height="15.635"/>
	</g>
</g>
<g>
	<g>
		<rect x="139.775" y="408.807" width="55.243" height="15.635"/>
	</g>
</g>
<g>
	<g>
		<rect x="211.695" y="408.807" width="16.677" height="15.635"/>
	</g>
</g>
<g>
	<g>
		<rect x="235.668" y="408.807" width="16.677" height="15.635"/>
	</g>
</g>
<g>
	<g>
		<rect x="259.641" y="408.807" width="16.677" height="15.635"/>
	</g>
</g>
<g>
</g>
<g>
</g>
<g>
</g>
<g>
</g>
<g>
</g>
<g>
</g>
<g>
</g>
<g>
</g>
<g>
</g>
<g>
</g>
<g>
</g>
<g>
</g>
<g>
</g>
<g>
</g>
<g>
</g>
</svg>
