<svg width="669" height="118" viewBox="0 0 669 118" fill="none" xmlns="http://www.w3.org/2000/svg">
<g filter="url(#filter0_d_4_61)">
<path d="M160.037 81.6719V103H157.21V81.6719H160.037ZM168.973 91.2666V93.5811H159.422V91.2666H168.973ZM170.423 81.6719V83.9863H159.422V81.6719H170.423ZM172.342 95.251V94.9141C172.342 93.7715 172.508 92.7119 172.84 91.7354C173.172 90.749 173.65 89.8945 174.275 89.1719C174.9 88.4395 175.657 87.873 176.546 87.4727C177.435 87.0625 178.431 86.8574 179.534 86.8574C180.647 86.8574 181.648 87.0625 182.537 87.4727C183.436 87.873 184.197 88.4395 184.822 89.1719C185.457 89.8945 185.94 90.749 186.272 91.7354C186.604 92.7119 186.771 93.7715 186.771 94.9141V95.251C186.771 96.3936 186.604 97.4531 186.272 98.4297C185.94 99.4062 185.457 100.261 184.822 100.993C184.197 101.716 183.44 102.282 182.552 102.692C181.673 103.093 180.677 103.293 179.563 103.293C178.45 103.293 177.449 103.093 176.561 102.692C175.672 102.282 174.91 101.716 174.275 100.993C173.65 100.261 173.172 99.4062 172.84 98.4297C172.508 97.4531 172.342 96.3936 172.342 95.251ZM175.052 94.9141V95.251C175.052 96.042 175.145 96.7891 175.33 97.4922C175.516 98.1855 175.794 98.8008 176.165 99.3379C176.546 99.875 177.02 100.3 177.586 100.612C178.152 100.915 178.812 101.066 179.563 101.066C180.306 101.066 180.955 100.915 181.512 100.612C182.078 100.3 182.547 99.875 182.918 99.3379C183.289 98.8008 183.567 98.1855 183.753 97.4922C183.948 96.7891 184.046 96.042 184.046 95.251V94.9141C184.046 94.1328 183.948 93.3955 183.753 92.7021C183.567 91.999 183.284 91.3789 182.903 90.8418C182.532 90.2949 182.063 89.8652 181.497 89.5527C180.94 89.2402 180.286 89.084 179.534 89.084C178.792 89.084 178.138 89.2402 177.571 89.5527C177.015 89.8652 176.546 90.2949 176.165 90.8418C175.794 91.3789 175.516 91.999 175.33 92.7021C175.145 93.3955 175.052 94.1328 175.052 94.9141ZM189.451 95.251V94.9141C189.451 93.7715 189.617 92.7119 189.949 91.7354C190.281 90.749 190.76 89.8945 191.385 89.1719C192.01 88.4395 192.767 87.873 193.655 87.4727C194.544 87.0625 195.54 86.8574 196.644 86.8574C197.757 86.8574 198.758 87.0625 199.646 87.4727C200.545 87.873 201.307 88.4395 201.932 89.1719C202.566 89.8945 203.05 90.749 203.382 91.7354C203.714 92.7119 203.88 93.7715 203.88 94.9141V95.251C203.88 96.3936 203.714 97.4531 203.382 98.4297C203.05 99.4062 202.566 100.261 201.932 100.993C201.307 101.716 200.55 102.282 199.661 102.692C198.782 103.093 197.786 103.293 196.673 103.293C195.56 103.293 194.559 103.093 193.67 102.692C192.781 102.282 192.02 101.716 191.385 100.993C190.76 100.261 190.281 99.4062 189.949 98.4297C189.617 97.4531 189.451 96.3936 189.451 95.251ZM192.161 94.9141V95.251C192.161 96.042 192.254 96.7891 192.439 97.4922C192.625 98.1855 192.903 98.8008 193.274 99.3379C193.655 99.875 194.129 100.3 194.695 100.612C195.262 100.915 195.921 101.066 196.673 101.066C197.415 101.066 198.064 100.915 198.621 100.612C199.188 100.3 199.656 99.875 200.027 99.3379C200.398 98.8008 200.677 98.1855 200.862 97.4922C201.058 96.7891 201.155 96.042 201.155 95.251V94.9141C201.155 94.1328 201.058 93.3955 200.862 92.7021C200.677 91.999 200.394 91.3789 200.013 90.8418C199.642 90.2949 199.173 89.8652 198.606 89.5527C198.05 89.2402 197.396 89.084 196.644 89.084C195.901 89.084 195.247 89.2402 194.681 89.5527C194.124 89.8652 193.655 90.2949 193.274 90.8418C192.903 91.3789 192.625 91.999 192.439 92.7021C192.254 93.3955 192.161 94.1328 192.161 94.9141ZM217.269 99.9238V80.5H219.993V103H217.503L217.269 99.9238ZM206.604 95.251V94.9434C206.604 93.7324 206.751 92.6338 207.044 91.6475C207.347 90.6514 207.771 89.7969 208.318 89.084C208.875 88.3711 209.534 87.8242 210.296 87.4434C211.067 87.0527 211.927 86.8574 212.874 86.8574C213.87 86.8574 214.739 87.0332 215.481 87.3848C216.233 87.7266 216.868 88.2295 217.386 88.8936C217.913 89.5479 218.328 90.3389 218.631 91.2666C218.934 92.1943 219.144 93.2441 219.261 94.416V95.7637C219.153 96.9258 218.943 97.9707 218.631 98.8984C218.328 99.8262 217.913 100.617 217.386 101.271C216.868 101.926 216.233 102.429 215.481 102.78C214.729 103.122 213.851 103.293 212.845 103.293C211.917 103.293 211.067 103.093 210.296 102.692C209.534 102.292 208.875 101.73 208.318 101.008C207.771 100.285 207.347 99.4355 207.044 98.459C206.751 97.4727 206.604 96.4033 206.604 95.251ZM209.329 94.9434V95.251C209.329 96.042 209.407 96.7842 209.563 97.4775C209.729 98.1709 209.983 98.7812 210.325 99.3086C210.667 99.8359 211.102 100.251 211.629 100.554C212.156 100.847 212.786 100.993 213.519 100.993C214.417 100.993 215.154 100.803 215.73 100.422C216.316 100.041 216.785 99.5381 217.137 98.9131C217.488 98.2881 217.762 97.6094 217.957 96.877V93.3467C217.84 92.8096 217.669 92.292 217.444 91.7939C217.229 91.2861 216.946 90.8369 216.595 90.4463C216.253 90.0459 215.828 89.7285 215.32 89.4941C214.822 89.2598 214.231 89.1426 213.548 89.1426C212.806 89.1426 212.166 89.2988 211.629 89.6113C211.102 89.9141 210.667 90.334 210.325 90.8711C209.983 91.3984 209.729 92.0137 209.563 92.7168C209.407 93.4102 209.329 94.1523 209.329 94.9434ZM226.673 99.7773V101.96C226.673 102.849 226.448 103.786 225.999 104.772C225.55 105.769 224.92 106.599 224.109 107.263L222.571 106.193C222.884 105.764 223.147 105.324 223.362 104.875C223.577 104.436 223.738 103.977 223.846 103.498C223.963 103.029 224.021 102.531 224.021 102.004V99.7773H226.673ZM247.562 99.9238V80.5H250.286V103H247.796L247.562 99.9238ZM236.897 95.251V94.9434C236.897 93.7324 237.044 92.6338 237.337 91.6475C237.64 90.6514 238.064 89.7969 238.611 89.084C239.168 88.3711 239.827 87.8242 240.589 87.4434C241.36 87.0527 242.22 86.8574 243.167 86.8574C244.163 86.8574 245.032 87.0332 245.774 87.3848C246.526 87.7266 247.161 88.2295 247.679 88.8936C248.206 89.5479 248.621 90.3389 248.924 91.2666C249.227 92.1943 249.437 93.2441 249.554 94.416V95.7637C249.446 96.9258 249.236 97.9707 248.924 98.8984C248.621 99.8262 248.206 100.617 247.679 101.271C247.161 101.926 246.526 102.429 245.774 102.78C245.022 103.122 244.144 103.293 243.138 103.293C242.21 103.293 241.36 103.093 240.589 102.692C239.827 102.292 239.168 101.73 238.611 101.008C238.064 100.285 237.64 99.4355 237.337 98.459C237.044 97.4727 236.897 96.4033 236.897 95.251ZM239.622 94.9434V95.251C239.622 96.042 239.7 96.7842 239.856 97.4775C240.022 98.1709 240.276 98.7812 240.618 99.3086C240.96 99.8359 241.395 100.251 241.922 100.554C242.449 100.847 243.079 100.993 243.812 100.993C244.71 100.993 245.447 100.803 246.023 100.422C246.609 100.041 247.078 99.5381 247.43 98.9131C247.781 98.2881 248.055 97.6094 248.25 96.877V93.3467C248.133 92.8096 247.962 92.292 247.737 91.7939C247.522 91.2861 247.239 90.8369 246.888 90.4463C246.546 90.0459 246.121 89.7285 245.613 89.4941C245.115 89.2598 244.524 89.1426 243.841 89.1426C243.099 89.1426 242.459 89.2988 241.922 89.6113C241.395 89.9141 240.96 90.334 240.618 90.8711C240.276 91.3984 240.022 92.0137 239.856 92.7168C239.7 93.4102 239.622 94.1523 239.622 94.9434ZM253.787 95.251V94.9141C253.787 93.7715 253.953 92.7119 254.285 91.7354C254.617 90.749 255.096 89.8945 255.721 89.1719C256.346 88.4395 257.103 87.873 257.991 87.4727C258.88 87.0625 259.876 86.8574 260.979 86.8574C262.093 86.8574 263.094 87.0625 263.982 87.4727C264.881 87.873 265.643 88.4395 266.268 89.1719C266.902 89.8945 267.386 90.749 267.718 91.7354C268.05 92.7119 268.216 93.7715 268.216 94.9141V95.251C268.216 96.3936 268.05 97.4531 267.718 98.4297C267.386 99.4062 266.902 100.261 266.268 100.993C265.643 101.716 264.886 102.282 263.997 102.692C263.118 103.093 262.122 103.293 261.009 103.293C259.896 103.293 258.895 103.093 258.006 102.692C257.117 102.282 256.355 101.716 255.721 100.993C255.096 100.261 254.617 99.4062 254.285 98.4297C253.953 97.4531 253.787 96.3936 253.787 95.251ZM256.497 94.9141V95.251C256.497 96.042 256.59 96.7891 256.775 97.4922C256.961 98.1855 257.239 98.8008 257.61 99.3379C257.991 99.875 258.465 100.3 259.031 100.612C259.598 100.915 260.257 101.066 261.009 101.066C261.751 101.066 262.4 100.915 262.957 100.612C263.523 100.3 263.992 99.875 264.363 99.3379C264.734 98.8008 265.013 98.1855 265.198 97.4922C265.394 96.7891 265.491 96.042 265.491 95.251V94.9141C265.491 94.1328 265.394 93.3955 265.198 92.7021C265.013 91.999 264.729 91.3789 264.349 90.8418C263.978 90.2949 263.509 89.8652 262.942 89.5527C262.386 89.2402 261.731 89.084 260.979 89.084C260.237 89.084 259.583 89.2402 259.017 89.5527C258.46 89.8652 257.991 90.2949 257.61 90.8418C257.239 91.3789 256.961 91.999 256.775 92.7021C256.59 93.3955 256.497 94.1328 256.497 94.9141ZM274.324 90.5342V103H271.614V87.1504H274.178L274.324 90.5342ZM273.68 94.4746L272.552 94.4307C272.562 93.3467 272.723 92.3457 273.035 91.4277C273.348 90.5 273.787 89.6943 274.354 89.0107C274.92 88.3271 275.594 87.7998 276.375 87.4287C277.166 87.0479 278.04 86.8574 278.997 86.8574C279.778 86.8574 280.481 86.9648 281.106 87.1797C281.731 87.3848 282.264 87.7168 282.703 88.1758C283.152 88.6348 283.494 89.2305 283.729 89.9629C283.963 90.6855 284.08 91.5693 284.08 92.6143V103H281.355V92.585C281.355 91.7549 281.233 91.0908 280.989 90.5928C280.745 90.085 280.389 89.7188 279.92 89.4941C279.451 89.2598 278.875 89.1426 278.191 89.1426C277.518 89.1426 276.902 89.2842 276.346 89.5674C275.799 89.8506 275.325 90.2412 274.925 90.7393C274.534 91.2373 274.227 91.8086 274.002 92.4531C273.787 93.0879 273.68 93.7617 273.68 94.4746ZM294.773 103.293C293.67 103.293 292.669 103.107 291.771 102.736C290.882 102.355 290.115 101.823 289.471 101.14C288.836 100.456 288.348 99.6455 288.006 98.708C287.664 97.7705 287.493 96.7451 287.493 95.6318V95.0166C287.493 93.7275 287.684 92.5801 288.064 91.5742C288.445 90.5586 288.963 89.6992 289.617 88.9961C290.271 88.293 291.014 87.7607 291.844 87.3994C292.674 87.0381 293.533 86.8574 294.422 86.8574C295.555 86.8574 296.531 87.0527 297.352 87.4434C298.182 87.834 298.86 88.3809 299.388 89.084C299.915 89.7773 300.306 90.5977 300.56 91.5449C300.813 92.4824 300.94 93.5078 300.94 94.6211V95.8369H289.104V93.625H298.23V93.4199C298.191 92.7168 298.045 92.0332 297.791 91.3691C297.547 90.7051 297.156 90.1582 296.619 89.7285C296.082 89.2988 295.35 89.084 294.422 89.084C293.807 89.084 293.24 89.2158 292.723 89.4795C292.205 89.7334 291.761 90.1143 291.39 90.6221C291.019 91.1299 290.73 91.75 290.525 92.4824C290.32 93.2148 290.218 94.0596 290.218 95.0166V95.6318C290.218 96.3838 290.32 97.0918 290.525 97.7559C290.74 98.4102 291.048 98.9863 291.448 99.4844C291.858 99.9824 292.352 100.373 292.928 100.656C293.514 100.939 294.178 101.081 294.92 101.081C295.877 101.081 296.688 100.886 297.352 100.495C298.016 100.104 298.597 99.582 299.095 98.9277L300.735 100.231C300.394 100.749 299.959 101.242 299.432 101.711C298.904 102.18 298.255 102.561 297.483 102.854C296.722 103.146 295.818 103.293 294.773 103.293ZM321.521 109.094V90.1973L321.756 87.1504H324.246V109.094H321.521ZM310.872 95.251V94.9434C310.872 93.7324 311.014 92.6338 311.297 91.6475C311.58 90.6514 311.995 89.7969 312.542 89.084C313.089 88.3711 313.748 87.8242 314.52 87.4434C315.301 87.0527 316.189 86.8574 317.186 86.8574C318.182 86.8574 319.056 87.0332 319.808 87.3848C320.569 87.7266 321.214 88.2295 321.741 88.8936C322.278 89.5479 322.703 90.3389 323.016 91.2666C323.328 92.1943 323.543 93.2441 323.66 94.416V95.7637C323.553 96.9258 323.343 97.9707 323.03 98.8984C322.718 99.8262 322.293 100.617 321.756 101.271C321.229 101.926 320.579 102.429 319.808 102.78C319.046 103.122 318.162 103.293 317.156 103.293C316.18 103.293 315.301 103.093 314.52 102.692C313.748 102.292 313.089 101.73 312.542 101.008C312.005 100.285 311.59 99.4355 311.297 98.459C311.014 97.4727 310.872 96.4033 310.872 95.251ZM313.597 94.9434V95.251C313.597 96.042 313.68 96.7891 313.846 97.4922C314.012 98.1855 314.266 98.8008 314.607 99.3379C314.959 99.875 315.398 100.3 315.926 100.612C316.463 100.915 317.098 101.066 317.83 101.066C318.729 101.066 319.476 100.871 320.071 100.48C320.677 100.09 321.16 99.5771 321.521 98.9424C321.883 98.2979 322.161 97.6094 322.356 96.877V93.3467C322.249 92.8096 322.078 92.2871 321.844 91.7793C321.619 91.2715 321.326 90.8174 320.965 90.417C320.604 90.0068 320.164 89.6846 319.646 89.4502C319.139 89.2061 318.543 89.084 317.859 89.084C317.117 89.084 316.478 89.2402 315.94 89.5527C315.403 89.8652 314.959 90.2949 314.607 90.8418C314.266 91.3789 314.012 91.999 313.846 92.7021C313.68 93.4053 313.597 94.1523 313.597 94.9434ZM338.294 99.3379V87.1504H341.019V103H338.426L338.294 99.3379ZM338.807 95.998L339.935 95.9688C339.935 97.0234 339.822 98 339.598 98.8984C339.383 99.7871 339.031 100.559 338.543 101.213C338.055 101.867 337.415 102.38 336.624 102.751C335.833 103.112 334.871 103.293 333.738 103.293C332.967 103.293 332.259 103.181 331.614 102.956C330.979 102.731 330.433 102.385 329.974 101.916C329.515 101.447 329.158 100.837 328.904 100.085C328.66 99.333 328.538 98.4297 328.538 97.375V87.1504H331.248V97.4043C331.248 98.1172 331.326 98.708 331.482 99.1768C331.648 99.6357 331.868 100.002 332.142 100.275C332.425 100.539 332.737 100.725 333.079 100.832C333.431 100.939 333.792 100.993 334.163 100.993C335.315 100.993 336.229 100.773 336.902 100.334C337.576 99.8848 338.06 99.2842 338.353 98.5322C338.655 97.7705 338.807 96.9258 338.807 95.998ZM348.094 87.1504V103H345.369V87.1504H348.094ZM345.164 82.9463C345.164 82.5068 345.296 82.1357 345.56 81.833C345.833 81.5303 346.233 81.3789 346.761 81.3789C347.278 81.3789 347.674 81.5303 347.947 81.833C348.23 82.1357 348.372 82.5068 348.372 82.9463C348.372 83.3662 348.23 83.7275 347.947 84.0303C347.674 84.3232 347.278 84.4697 346.761 84.4697C346.233 84.4697 345.833 84.3232 345.56 84.0303C345.296 83.7275 345.164 83.3662 345.164 82.9463ZM358.787 101.066C359.432 101.066 360.027 100.935 360.574 100.671C361.121 100.407 361.57 100.046 361.922 99.5869C362.273 99.1182 362.474 98.5859 362.522 97.9902H365.101C365.052 98.9277 364.734 99.8018 364.148 100.612C363.572 101.413 362.815 102.062 361.878 102.561C360.94 103.049 359.91 103.293 358.787 103.293C357.596 103.293 356.556 103.083 355.667 102.663C354.788 102.243 354.056 101.667 353.47 100.935C352.894 100.202 352.459 99.3623 352.166 98.415C351.883 97.458 351.741 96.4473 351.741 95.3828V94.7676C351.741 93.7031 351.883 92.6973 352.166 91.75C352.459 90.793 352.894 89.9482 353.47 89.2158C354.056 88.4834 354.788 87.9072 355.667 87.4873C356.556 87.0674 357.596 86.8574 358.787 86.8574C360.027 86.8574 361.111 87.1113 362.039 87.6191C362.967 88.1172 363.694 88.8008 364.222 89.6699C364.759 90.5293 365.052 91.5059 365.101 92.5996H362.522C362.474 91.9453 362.288 91.3545 361.966 90.8271C361.653 90.2998 361.224 89.8799 360.677 89.5674C360.14 89.2451 359.51 89.084 358.787 89.084C357.957 89.084 357.259 89.25 356.692 89.582C356.136 89.9043 355.691 90.3438 355.359 90.9004C355.037 91.4473 354.803 92.0576 354.656 92.7314C354.52 93.3955 354.451 94.0742 354.451 94.7676V95.3828C354.451 96.0762 354.52 96.7598 354.656 97.4336C354.793 98.1074 355.022 98.7178 355.345 99.2646C355.677 99.8115 356.121 100.251 356.678 100.583C357.244 100.905 357.947 101.066 358.787 101.066ZM370.872 80.5V103H368.147V80.5H370.872ZM380.555 87.1504L373.641 94.5479L369.773 98.5615L369.554 95.6758L372.322 92.3652L377.244 87.1504H380.555ZM378.079 103L372.425 95.4414L373.831 93.0244L381.272 103H378.079ZM400.14 100.29V92.1309C400.14 91.5059 400.013 90.9639 399.759 90.5049C399.515 90.0361 399.144 89.6748 398.646 89.4209C398.147 89.167 397.532 89.04 396.8 89.04C396.116 89.04 395.516 89.1572 394.998 89.3916C394.49 89.626 394.09 89.9336 393.797 90.3145C393.514 90.6953 393.372 91.1055 393.372 91.5449H390.662C390.662 90.9785 390.809 90.417 391.102 89.8604C391.395 89.3037 391.814 88.8008 392.361 88.3516C392.918 87.8926 393.582 87.5312 394.354 87.2676C395.135 86.9941 396.004 86.8574 396.961 86.8574C398.113 86.8574 399.129 87.0527 400.008 87.4434C400.896 87.834 401.59 88.4248 402.088 89.2158C402.596 89.9971 402.85 90.9785 402.85 92.1602V99.543C402.85 100.07 402.894 100.632 402.981 101.228C403.079 101.823 403.221 102.336 403.406 102.766V103H400.579C400.442 102.688 400.335 102.272 400.257 101.755C400.179 101.228 400.14 100.739 400.14 100.29ZM400.608 93.3906L400.638 95.2949H397.898C397.127 95.2949 396.438 95.3584 395.833 95.4854C395.228 95.6025 394.72 95.7832 394.31 96.0273C393.899 96.2715 393.587 96.5791 393.372 96.9502C393.157 97.3115 393.05 97.7363 393.05 98.2246C393.05 98.7227 393.162 99.1768 393.387 99.5869C393.611 99.9971 393.948 100.324 394.397 100.568C394.856 100.803 395.418 100.92 396.082 100.92C396.912 100.92 397.645 100.744 398.279 100.393C398.914 100.041 399.417 99.6113 399.788 99.1035C400.169 98.5957 400.374 98.1025 400.403 97.624L401.561 98.9277C401.492 99.3379 401.307 99.792 401.004 100.29C400.701 100.788 400.296 101.267 399.788 101.726C399.29 102.175 398.694 102.551 398.001 102.854C397.317 103.146 396.546 103.293 395.687 103.293C394.612 103.293 393.67 103.083 392.859 102.663C392.059 102.243 391.434 101.682 390.984 100.979C390.545 100.266 390.325 99.4697 390.325 98.5908C390.325 97.7412 390.491 96.9941 390.823 96.3496C391.155 95.6953 391.634 95.1533 392.259 94.7236C392.884 94.2842 393.636 93.9521 394.515 93.7275C395.394 93.5029 396.375 93.3906 397.459 93.3906H400.608ZM409.822 90.5342V103H407.112V87.1504H409.676L409.822 90.5342ZM409.178 94.4746L408.05 94.4307C408.06 93.3467 408.221 92.3457 408.533 91.4277C408.846 90.5 409.285 89.6943 409.852 89.0107C410.418 88.3271 411.092 87.7998 411.873 87.4287C412.664 87.0479 413.538 86.8574 414.495 86.8574C415.276 86.8574 415.979 86.9648 416.604 87.1797C417.229 87.3848 417.762 87.7168 418.201 88.1758C418.65 88.6348 418.992 89.2305 419.227 89.9629C419.461 90.6855 419.578 91.5693 419.578 92.6143V103H416.854V92.585C416.854 91.7549 416.731 91.0908 416.487 90.5928C416.243 90.085 415.887 89.7188 415.418 89.4941C414.949 89.2598 414.373 89.1426 413.689 89.1426C413.016 89.1426 412.4 89.2842 411.844 89.5674C411.297 89.8506 410.823 90.2412 410.423 90.7393C410.032 91.2373 409.725 91.8086 409.5 92.4531C409.285 93.0879 409.178 93.7617 409.178 94.4746ZM433.685 99.9238V80.5H436.409V103H433.919L433.685 99.9238ZM423.021 95.251V94.9434C423.021 93.7324 423.167 92.6338 423.46 91.6475C423.763 90.6514 424.188 89.7969 424.734 89.084C425.291 88.3711 425.95 87.8242 426.712 87.4434C427.483 87.0527 428.343 86.8574 429.29 86.8574C430.286 86.8574 431.155 87.0332 431.897 87.3848C432.649 87.7266 433.284 88.2295 433.802 88.8936C434.329 89.5479 434.744 90.3389 435.047 91.2666C435.35 92.1943 435.56 93.2441 435.677 94.416V95.7637C435.569 96.9258 435.359 97.9707 435.047 98.8984C434.744 99.8262 434.329 100.617 433.802 101.271C433.284 101.926 432.649 102.429 431.897 102.78C431.146 103.122 430.267 103.293 429.261 103.293C428.333 103.293 427.483 103.093 426.712 102.692C425.95 102.292 425.291 101.73 424.734 101.008C424.188 100.285 423.763 99.4355 423.46 98.459C423.167 97.4727 423.021 96.4033 423.021 95.251ZM425.745 94.9434V95.251C425.745 96.042 425.823 96.7842 425.979 97.4775C426.146 98.1709 426.399 98.7812 426.741 99.3086C427.083 99.8359 427.518 100.251 428.045 100.554C428.572 100.847 429.202 100.993 429.935 100.993C430.833 100.993 431.57 100.803 432.146 100.422C432.732 100.041 433.201 99.5381 433.553 98.9131C433.904 98.2881 434.178 97.6094 434.373 96.877V93.3467C434.256 92.8096 434.085 92.292 433.86 91.7939C433.646 91.2861 433.362 90.8369 433.011 90.4463C432.669 90.0459 432.244 89.7285 431.736 89.4941C431.238 89.2598 430.647 89.1426 429.964 89.1426C429.222 89.1426 428.582 89.2988 428.045 89.6113C427.518 89.9141 427.083 90.334 426.741 90.8711C426.399 91.3984 426.146 92.0137 425.979 92.7168C425.823 93.4102 425.745 94.1523 425.745 94.9434ZM454.646 103.293C453.543 103.293 452.542 103.107 451.644 102.736C450.755 102.355 449.988 101.823 449.344 101.14C448.709 100.456 448.221 99.6455 447.879 98.708C447.537 97.7705 447.366 96.7451 447.366 95.6318V95.0166C447.366 93.7275 447.557 92.5801 447.938 91.5742C448.318 90.5586 448.836 89.6992 449.49 88.9961C450.145 88.293 450.887 87.7607 451.717 87.3994C452.547 87.0381 453.406 86.8574 454.295 86.8574C455.428 86.8574 456.404 87.0527 457.225 87.4434C458.055 87.834 458.733 88.3809 459.261 89.084C459.788 89.7773 460.179 90.5977 460.433 91.5449C460.687 92.4824 460.813 93.5078 460.813 94.6211V95.8369H448.978V93.625H458.104V93.4199C458.064 92.7168 457.918 92.0332 457.664 91.3691C457.42 90.7051 457.029 90.1582 456.492 89.7285C455.955 89.2988 455.223 89.084 454.295 89.084C453.68 89.084 453.113 89.2158 452.596 89.4795C452.078 89.7334 451.634 90.1143 451.263 90.6221C450.892 91.1299 450.604 91.75 450.398 92.4824C450.193 93.2148 450.091 94.0596 450.091 95.0166V95.6318C450.091 96.3838 450.193 97.0918 450.398 97.7559C450.613 98.4102 450.921 98.9863 451.321 99.4844C451.731 99.9824 452.225 100.373 452.801 100.656C453.387 100.939 454.051 101.081 454.793 101.081C455.75 101.081 456.561 100.886 457.225 100.495C457.889 100.104 458.47 99.582 458.968 98.9277L460.608 100.231C460.267 100.749 459.832 101.242 459.305 101.711C458.777 102.18 458.128 102.561 457.356 102.854C456.595 103.146 455.691 103.293 454.646 103.293ZM473.323 100.29V92.1309C473.323 91.5059 473.196 90.9639 472.942 90.5049C472.698 90.0361 472.327 89.6748 471.829 89.4209C471.331 89.167 470.716 89.04 469.983 89.04C469.3 89.04 468.699 89.1572 468.182 89.3916C467.674 89.626 467.273 89.9336 466.98 90.3145C466.697 90.6953 466.556 91.1055 466.556 91.5449H463.846C463.846 90.9785 463.992 90.417 464.285 89.8604C464.578 89.3037 464.998 88.8008 465.545 88.3516C466.102 87.8926 466.766 87.5312 467.537 87.2676C468.318 86.9941 469.188 86.8574 470.145 86.8574C471.297 86.8574 472.312 87.0527 473.191 87.4434C474.08 87.834 474.773 88.4248 475.271 89.2158C475.779 89.9971 476.033 90.9785 476.033 92.1602V99.543C476.033 100.07 476.077 100.632 476.165 101.228C476.263 101.823 476.404 102.336 476.59 102.766V103H473.763C473.626 102.688 473.519 102.272 473.44 101.755C473.362 101.228 473.323 100.739 473.323 100.29ZM473.792 93.3906L473.821 95.2949H471.082C470.311 95.2949 469.622 95.3584 469.017 95.4854C468.411 95.6025 467.903 95.7832 467.493 96.0273C467.083 96.2715 466.771 96.5791 466.556 96.9502C466.341 97.3115 466.233 97.7363 466.233 98.2246C466.233 98.7227 466.346 99.1768 466.57 99.5869C466.795 99.9971 467.132 100.324 467.581 100.568C468.04 100.803 468.602 100.92 469.266 100.92C470.096 100.92 470.828 100.744 471.463 100.393C472.098 100.041 472.601 99.6113 472.972 99.1035C473.353 98.5957 473.558 98.1025 473.587 97.624L474.744 98.9277C474.676 99.3379 474.49 99.792 474.188 100.29C473.885 100.788 473.479 101.267 472.972 101.726C472.474 102.175 471.878 102.551 471.185 102.854C470.501 103.146 469.729 103.293 468.87 103.293C467.796 103.293 466.854 103.083 466.043 102.663C465.242 102.243 464.617 101.682 464.168 100.979C463.729 100.266 463.509 99.4697 463.509 98.5908C463.509 97.7412 463.675 96.9941 464.007 96.3496C464.339 95.6953 464.817 95.1533 465.442 94.7236C466.067 94.2842 466.819 93.9521 467.698 93.7275C468.577 93.5029 469.559 93.3906 470.643 93.3906H473.792ZM489.524 98.7959C489.524 98.4053 489.437 98.0439 489.261 97.7119C489.095 97.3701 488.748 97.0625 488.221 96.7891C487.703 96.5059 486.922 96.2617 485.877 96.0566C484.998 95.8711 484.202 95.6514 483.489 95.3975C482.786 95.1436 482.186 94.8359 481.688 94.4746C481.199 94.1133 480.823 93.6885 480.56 93.2002C480.296 92.7119 480.164 92.1406 480.164 91.4863C480.164 90.8613 480.301 90.2705 480.574 89.7139C480.857 89.1572 481.253 88.6641 481.761 88.2344C482.278 87.8047 482.898 87.4678 483.621 87.2236C484.344 86.9795 485.149 86.8574 486.038 86.8574C487.308 86.8574 488.392 87.082 489.29 87.5312C490.188 87.9805 490.877 88.5811 491.355 89.333C491.834 90.0752 492.073 90.9004 492.073 91.8086H489.363C489.363 91.3691 489.231 90.9443 488.968 90.5342C488.714 90.1143 488.338 89.7676 487.84 89.4941C487.352 89.2207 486.751 89.084 486.038 89.084C485.286 89.084 484.676 89.2012 484.207 89.4355C483.748 89.6602 483.411 89.9482 483.196 90.2998C482.991 90.6514 482.889 91.0225 482.889 91.4131C482.889 91.7061 482.938 91.9697 483.035 92.2041C483.143 92.4287 483.328 92.6387 483.592 92.834C483.855 93.0195 484.227 93.1953 484.705 93.3613C485.184 93.5273 485.794 93.6934 486.536 93.8594C487.835 94.1523 488.904 94.5039 489.744 94.9141C490.584 95.3242 491.209 95.8271 491.619 96.4229C492.029 97.0186 492.234 97.7412 492.234 98.5908C492.234 99.2842 492.088 99.9189 491.795 100.495C491.512 101.071 491.097 101.569 490.55 101.989C490.013 102.399 489.368 102.722 488.616 102.956C487.874 103.181 487.039 103.293 486.111 103.293C484.715 103.293 483.533 103.044 482.566 102.546C481.6 102.048 480.867 101.403 480.369 100.612C479.871 99.8213 479.622 98.9863 479.622 98.1074H482.347C482.386 98.8496 482.601 99.4404 482.991 99.8799C483.382 100.31 483.86 100.617 484.427 100.803C484.993 100.979 485.555 101.066 486.111 101.066C486.854 101.066 487.474 100.969 487.972 100.773C488.479 100.578 488.865 100.31 489.129 99.9678C489.393 99.626 489.524 99.2354 489.524 98.7959ZM500.247 101.359L504.656 87.1504H507.557L501.199 105.446C501.053 105.837 500.857 106.257 500.613 106.706C500.379 107.165 500.076 107.6 499.705 108.01C499.334 108.42 498.885 108.752 498.357 109.006C497.84 109.27 497.22 109.401 496.497 109.401C496.282 109.401 496.009 109.372 495.677 109.313C495.345 109.255 495.11 109.206 494.974 109.167L494.959 106.97C495.037 106.979 495.159 106.989 495.325 106.999C495.501 107.019 495.623 107.028 495.691 107.028C496.307 107.028 496.829 106.945 497.259 106.779C497.688 106.623 498.05 106.354 498.343 105.974C498.646 105.603 498.904 105.09 499.119 104.436L500.247 101.359ZM497.01 87.1504L501.126 99.4551L501.829 102.312L499.881 103.308L494.051 87.1504H497.01ZM508.465 101.564C508.465 101.105 508.606 100.72 508.89 100.407C509.183 100.085 509.603 99.9238 510.149 99.9238C510.696 99.9238 511.111 100.085 511.395 100.407C511.688 100.72 511.834 101.105 511.834 101.564C511.834 102.014 511.688 102.395 511.395 102.707C511.111 103.02 510.696 103.176 510.149 103.176C509.603 103.176 509.183 103.02 508.89 102.707C508.606 102.395 508.465 102.014 508.465 101.564Z" fill="#FFD600"/>
<path d="M251.695 59H222.896V16.9883H251.695V25.3965H231.305V33.8047H245.104V42.2129H231.305V50.5918H251.695V59ZM286.236 59H284.303L281.197 54.6934C280.436 55.377 279.625 56.0215 278.766 56.627C277.926 57.2129 277.037 57.7305 276.1 58.1797C275.162 58.6094 274.195 58.9512 273.199 59.2051C272.223 59.459 271.227 59.5859 270.211 59.5859C268.004 59.5859 265.924 59.2148 263.971 58.4727C262.037 57.7305 260.338 56.6562 258.873 55.25C257.428 53.8242 256.285 52.0859 255.445 50.0352C254.605 47.9844 254.186 45.6504 254.186 43.0332C254.186 40.5918 254.605 38.3555 255.445 36.3242C256.285 34.2734 257.428 32.5156 258.873 31.0508C260.338 29.5859 262.037 28.4531 263.971 27.6523C265.924 26.832 268.004 26.4219 270.211 26.4219C271.227 26.4219 272.232 26.5488 273.229 26.8027C274.225 27.0566 275.191 27.4082 276.129 27.8574C277.066 28.3066 277.955 28.834 278.795 29.4395C279.654 30.0449 280.455 30.6992 281.197 31.4023L284.303 27.6816H286.236V59ZM278.18 43.0332C278.18 41.9395 277.965 40.8848 277.535 39.8691C277.125 38.834 276.559 37.9258 275.836 37.1445C275.113 36.3438 274.264 35.709 273.287 35.2402C272.33 34.752 271.305 34.5078 270.211 34.5078C269.117 34.5078 268.082 34.6934 267.105 35.0645C266.148 35.4355 265.309 35.9824 264.586 36.7051C263.883 37.4277 263.326 38.3262 262.916 39.4004C262.506 40.4551 262.301 41.666 262.301 43.0332C262.301 44.4004 262.506 45.6211 262.916 46.6953C263.326 47.75 263.883 48.6387 264.586 49.3613C265.309 50.084 266.148 50.6309 267.105 51.002C268.082 51.373 269.117 51.5586 270.211 51.5586C271.305 51.5586 272.33 51.3242 273.287 50.8555C274.264 50.3672 275.113 49.7324 275.836 48.9512C276.559 48.1504 277.125 47.2422 277.535 46.2266C277.965 45.1914 278.18 44.127 278.18 43.0332ZM309.586 59H291.305V51.0312H309.586C310.133 51.0312 310.602 50.8359 310.992 50.4453C311.383 50.0547 311.578 49.5859 311.578 49.0391C311.578 48.4727 311.383 48.1016 310.992 47.9258C310.602 47.75 310.133 47.6621 309.586 47.6621H301.266C299.879 47.6621 298.58 47.3984 297.369 46.8711C296.158 46.3438 295.104 45.6309 294.205 44.7324C293.307 43.8145 292.594 42.75 292.066 41.5391C291.559 40.3281 291.305 39.0293 291.305 37.6426C291.305 36.2559 291.559 34.957 292.066 33.7461C292.594 32.5352 293.307 31.4805 294.205 30.582C295.104 29.6836 296.158 28.9805 297.369 28.4727C298.58 27.9453 299.879 27.6816 301.266 27.6816H317.467V35.6504H301.266C300.719 35.6504 300.25 35.8457 299.859 36.2363C299.469 36.627 299.273 37.0957 299.273 37.6426C299.273 38.209 299.469 38.6973 299.859 39.1074C300.25 39.498 300.719 39.6934 301.266 39.6934H309.586C310.953 39.6934 312.242 39.9277 313.453 40.3965C314.664 40.8457 315.719 41.4805 316.617 42.3008C317.516 43.1211 318.229 44.1074 318.756 45.2598C319.283 46.4121 319.547 47.6719 319.547 49.0391C319.547 50.4258 319.283 51.7246 318.756 52.9355C318.229 54.127 317.516 55.1816 316.617 56.0996C315.719 56.998 314.664 57.7109 313.453 58.2383C312.242 58.7461 310.953 59 309.586 59ZM331.383 70.9531V62.8965L335.836 62.9551C336.617 62.9551 337.369 62.8281 338.092 62.5742C338.814 62.3203 339.479 61.9688 340.084 61.5195C340.709 61.0703 341.256 60.5332 341.725 59.9082C342.193 59.3027 342.574 58.6387 342.867 57.916C341.988 58.2871 341.09 58.6582 340.172 59.0293C339.273 59.4004 338.365 59.5859 337.447 59.5859C335.514 59.5859 333.697 59.2441 331.998 58.5605C330.299 57.877 328.805 56.9102 327.516 55.6602C326.246 54.3906 325.24 52.8574 324.498 51.0605C323.775 49.2441 323.414 47.2129 323.414 44.9668V27.623H331.383V44.9668C331.383 46.0801 331.539 47.0566 331.852 47.8965C332.184 48.7168 332.623 49.4102 333.17 49.9766C333.717 50.5234 334.352 50.9336 335.074 51.207C335.816 51.4805 336.607 51.6172 337.447 51.6172C338.268 51.6172 339.039 51.4316 339.762 51.0605C340.504 50.6699 341.148 50.1621 341.695 49.5371C342.242 48.9121 342.672 48.209 342.984 47.4277C343.297 46.627 343.453 45.8066 343.453 44.9668V27.623H351.51V55.0449C351.49 57.252 351.061 59.3223 350.221 61.2559C349.381 63.1895 348.229 64.8789 346.764 66.3242C345.318 67.7695 343.629 68.9121 341.695 69.752C339.762 70.5918 337.691 71.0117 335.484 71.0117L331.383 70.9531ZM400.172 59H391.793V29C391.793 28.4141 391.676 27.8672 391.441 27.3594C391.227 26.8516 390.924 26.4121 390.533 26.041C390.162 25.6504 389.723 25.3477 389.215 25.1328C388.707 24.918 388.16 24.8105 387.574 24.8105C386.988 24.8105 386.441 24.918 385.934 25.1328C385.426 25.3477 384.977 25.6504 384.586 26.041C384.215 26.4121 383.922 26.8516 383.707 27.3594C383.492 27.8672 383.385 28.4141 383.385 29V59H374.977V29C374.977 28.4141 374.869 27.8672 374.654 27.3594C374.439 26.8516 374.137 26.4121 373.746 26.041C373.375 25.6504 372.936 25.3477 372.428 25.1328C371.92 24.918 371.373 24.8105 370.787 24.8105C370.201 24.8105 369.654 24.918 369.146 25.1328C368.639 25.3477 368.189 25.6504 367.799 26.041C367.428 26.4121 367.135 26.8516 366.92 27.3594C366.705 27.8672 366.598 28.4141 366.598 29V59H358.189V29C358.189 27.2617 358.512 25.6309 359.156 24.1074C359.82 22.5645 360.719 21.2266 361.852 20.0938C363.004 18.9414 364.342 18.043 365.865 17.3984C367.408 16.7344 369.049 16.4023 370.787 16.4023C372.35 16.4023 373.854 16.6855 375.299 17.252C376.744 17.7988 378.043 18.5996 379.195 19.6543C380.348 18.5996 381.637 17.7988 383.062 17.252C384.508 16.6855 386.012 16.4023 387.574 16.4023C389.312 16.4023 390.943 16.7344 392.467 17.3984C394.01 18.043 395.348 18.9414 396.48 20.0938C397.633 21.2266 398.531 22.5645 399.176 24.1074C399.84 25.6309 400.172 27.2617 400.172 29V59ZM418.98 51.3242C419.293 51.4219 419.605 51.4902 419.918 51.5293C420.23 51.5488 420.543 51.5586 420.855 51.5586C421.637 51.5586 422.389 51.4512 423.111 51.2363C423.834 51.0215 424.508 50.7188 425.133 50.3281C425.777 49.918 426.344 49.4297 426.832 48.8633C427.34 48.2773 427.75 47.6328 428.062 46.9297L433.922 52.8184C433.18 53.873 432.32 54.8203 431.344 55.6602C430.387 56.5 429.342 57.2129 428.209 57.7988C427.096 58.3848 425.914 58.8242 424.664 59.1172C423.434 59.4297 422.164 59.5859 420.855 59.5859C418.648 59.5859 416.568 59.1758 414.615 58.3555C412.682 57.5352 410.982 56.3926 409.518 54.9277C408.072 53.4629 406.93 51.7246 406.09 49.7129C405.25 47.6816 404.83 45.4551 404.83 43.0332C404.83 40.5527 405.25 38.2871 406.09 36.2363C406.93 34.1855 408.072 32.4375 409.518 30.9922C410.982 29.5469 412.682 28.4238 414.615 27.623C416.568 26.8223 418.648 26.4219 420.855 26.4219C422.164 26.4219 423.443 26.5781 424.693 26.8906C425.943 27.2031 427.125 27.6523 428.238 28.2383C429.371 28.8242 430.426 29.5469 431.402 30.4062C432.379 31.2461 433.238 32.1934 433.98 33.248L418.98 51.3242ZM423.082 34.8301C422.711 34.6934 422.34 34.6055 421.969 34.5664C421.617 34.5273 421.246 34.5078 420.855 34.5078C419.762 34.5078 418.727 34.7129 417.75 35.123C416.793 35.5137 415.953 36.0801 415.23 36.8223C414.527 37.5645 413.971 38.4629 413.561 39.5176C413.15 40.5527 412.945 41.7246 412.945 43.0332C412.945 43.3262 412.955 43.6582 412.975 44.0293C413.014 44.4004 413.062 44.7812 413.121 45.1719C413.199 45.543 413.287 45.9043 413.385 46.2559C413.482 46.6074 413.609 46.9199 413.766 47.1934L423.082 34.8301ZM468.17 59H466.236L463.131 54.6934C462.369 55.377 461.559 56.0215 460.699 56.627C459.859 57.2129 458.971 57.7305 458.033 58.1797C457.096 58.6094 456.129 58.9512 455.133 59.2051C454.156 59.459 453.16 59.5859 452.145 59.5859C449.938 59.5859 447.857 59.2148 445.904 58.4727C443.971 57.7305 442.271 56.6562 440.807 55.25C439.361 53.8242 438.219 52.0859 437.379 50.0352C436.539 47.9844 436.119 45.6504 436.119 43.0332C436.119 40.5918 436.539 38.3555 437.379 36.3242C438.219 34.2734 439.361 32.5156 440.807 31.0508C442.271 29.5859 443.971 28.4531 445.904 27.6523C447.857 26.832 449.938 26.4219 452.145 26.4219C453.16 26.4219 454.166 26.5488 455.162 26.8027C456.158 27.0566 457.125 27.4082 458.062 27.8574C459 28.3066 459.889 28.834 460.729 29.4395C461.588 30.0449 462.389 30.6992 463.131 31.4023L466.236 27.6816H468.17V59ZM460.113 43.0332C460.113 41.9395 459.898 40.8848 459.469 39.8691C459.059 38.834 458.492 37.9258 457.77 37.1445C457.047 36.3438 456.197 35.709 455.221 35.2402C454.264 34.752 453.238 34.5078 452.145 34.5078C451.051 34.5078 450.016 34.6934 449.039 35.0645C448.082 35.4355 447.242 35.9824 446.52 36.7051C445.816 37.4277 445.26 38.3262 444.85 39.4004C444.439 40.4551 444.234 41.666 444.234 43.0332C444.234 44.4004 444.439 45.6211 444.85 46.6953C445.26 47.75 445.816 48.6387 446.52 49.3613C447.242 50.084 448.082 50.6309 449.039 51.002C450.016 51.373 451.051 51.5586 452.145 51.5586C453.238 51.5586 454.264 51.3242 455.221 50.8555C456.197 50.3672 457.047 49.7324 457.77 48.9512C458.492 48.1504 459.059 47.2422 459.469 46.2266C459.898 45.1914 460.113 44.127 460.113 43.0332ZM482.35 59H474.293V15.1426H482.35V59Z" fill="#FFD600"/>
<path d="M212.194 48.7507C211.844 48.5135 211.368 48.6045 211.131 48.9543C208.513 52.8109 204.18 55.1133 199.539 55.1133C199.116 55.1133 198.773 55.456 198.773 55.8787C198.773 56.3013 199.116 56.644 199.539 56.644C204.688 56.644 209.495 54.0907 212.397 49.8139C212.635 49.464 212.543 48.9881 212.194 48.7507Z" fill="#FFD600"/>
<path d="M214.316 41.5496C213.892 41.5156 213.525 41.8297 213.492 42.251C213.373 43.7199 213.025 45.1525 212.457 46.5087C212.293 46.8986 212.477 47.347 212.867 47.5104C212.963 47.5509 213.063 47.57 213.162 47.57C213.461 47.57 213.745 47.3935 213.868 47.1003C214.499 45.5944 214.886 44.0042 215.017 42.3738C215.051 41.9525 214.737 41.5836 214.316 41.5496Z" fill="#FFD600"/>
<path d="M187.746 26.314H182.278C180.836 26.314 179.664 25.1412 179.664 23.6996C179.664 22.2581 180.836 21.0853 182.278 21.0853H184.794C185.217 21.0853 185.559 20.7426 185.559 20.32C185.559 19.8973 185.217 19.5546 184.794 19.5546H182.278C179.992 19.5546 178.133 21.4141 178.133 23.6996C178.133 25.9853 179.992 27.8447 182.278 27.8447H187.746C188.169 27.8447 188.511 27.502 188.511 27.0794C188.511 26.6567 188.169 26.314 187.746 26.314Z" fill="#FFD600"/>
<path d="M190.318 12H186.985C186.563 12 186.22 12.3427 186.22 12.7653C186.22 13.188 186.563 13.5307 186.985 13.5307H190.318C191.979 13.5307 193.33 14.8819 193.33 16.5427C193.33 18.2036 191.979 19.5547 190.318 19.5547H187.366C186.944 19.5547 186.601 19.8974 186.601 20.3201C186.601 20.7427 186.944 21.0854 187.366 21.0854H190.318C192.823 21.0854 194.861 19.0475 194.861 16.5427C194.861 14.0379 192.823 12 190.318 12Z" fill="#FFD600"/>
<path d="M206.62 22.0822H200.543C199.277 22.0822 198.246 21.0518 198.246 19.7852C198.246 18.5187 199.277 17.4882 200.543 17.4882H202.656C203.079 17.4882 203.421 17.1456 203.421 16.7229C203.421 16.3003 203.079 15.9576 202.656 15.9576H200.543C198.432 15.9576 196.716 17.6747 196.716 19.7851C196.716 21.8957 198.433 23.6127 200.543 23.6127H206.62C207.613 23.6127 208.421 24.4204 208.421 25.4132V27.0792C208.421 27.5018 208.763 27.8445 209.186 27.8445C209.609 27.8445 209.951 27.5018 209.951 27.0792V25.4132C209.951 23.5767 208.457 22.0822 206.62 22.0822Z" fill="#FFD600"/>
<path d="M215.5 39.1586H214.847C214.856 39.0886 214.862 39.0174 214.862 38.9439C214.863 38.1621 214.322 37.5784 213.888 37.1094C213.66 36.8636 213.425 36.6095 213.342 36.4106C213.268 36.2313 213.257 35.8991 213.247 35.5779C213.226 34.9276 213.199 34.1181 212.626 33.5445C212.052 32.9711 211.243 32.9448 210.592 32.9236C210.271 32.913 209.939 32.9024 209.76 32.8281C209.561 32.7457 209.307 32.5104 209.061 32.2828C208.592 31.8486 208.008 31.3079 207.226 31.308C206.445 31.308 205.862 31.8484 205.393 32.2826C205.147 32.5103 204.892 32.7458 204.693 32.8282C204.514 32.9024 204.182 32.913 203.861 32.9235C203.527 32.9343 203.152 32.9472 202.788 33.0341C201.565 31.4452 199.645 30.4185 197.49 30.4185C195.118 30.4185 193.032 31.6608 191.845 33.5281C190.894 33.0078 189.804 32.7116 188.646 32.7116C188.315 32.7116 187.989 32.7366 187.671 32.7834C187.285 31.4204 186.03 30.4186 184.545 30.4186C183.244 30.4186 182.119 31.1882 181.601 32.2958C180.854 32.0064 180.043 31.8468 179.195 31.8468C175.958 31.8468 173.251 34.1606 172.64 37.2212C172.176 37.7752 171.893 38.4854 171.883 39.2606C171.106 39.52 170.544 40.2528 170.544 41.1155C170.544 45.5596 172.189 49.825 175.176 53.1261C175.46 53.4397 175.944 53.4637 176.257 53.1801C176.571 52.8965 176.595 52.4126 176.311 52.0992C175.268 50.9459 174.404 49.6636 173.734 48.293H180.365C180.787 48.293 181.13 47.9503 181.13 47.5276C181.13 47.105 180.787 46.7623 180.365 46.7623H173.081C172.826 46.0698 172.618 45.3601 172.459 44.6374H196.815C197.237 44.6374 197.58 44.2948 197.58 43.8721C197.58 43.4495 197.237 43.1068 196.815 43.1068H172.197C172.117 42.4496 172.075 41.7847 172.075 41.1155C172.075 40.8807 172.266 40.6897 172.501 40.6897H215.5C215.735 40.6897 215.926 40.8807 215.926 41.1155C215.926 50.1512 208.574 57.5022 199.539 57.5022H188.462C184.803 57.5022 181.341 56.3182 178.448 54.0781C178.114 53.8193 177.633 53.8803 177.375 54.2146C177.116 54.5488 177.177 55.0295 177.511 55.2882C179.22 56.6116 181.111 57.5971 183.119 58.2243V59.2114C183.119 60.749 184.37 61.9999 185.908 61.9999H202.093C203.63 61.9999 204.881 60.749 204.881 59.2114V58.2191C212.16 55.9407 217.456 49.1351 217.456 41.1152C217.456 40.0362 216.579 39.1586 215.5 39.1586ZM184.545 31.9489C185.324 31.9489 185.982 32.4691 186.193 33.1797C185.517 33.4472 184.896 33.8207 184.348 34.2812C183.947 33.7953 183.479 33.3666 182.958 33.01C183.217 32.3876 183.831 31.9489 184.545 31.9489ZM173.42 39.1586C173.494 38.2791 174.233 37.5858 175.131 37.5858C176.03 37.5858 176.768 38.2791 176.842 39.1586H173.42ZM179.614 39.1586H179.614H178.777V38.5312C178.777 38.3004 178.965 38.1126 179.196 38.1126C179.426 38.1126 179.614 38.3005 179.614 38.5312V39.1586ZM181.967 39.1586H181.145V38.5312C181.145 37.4564 180.27 36.5819 179.195 36.5819C178.587 36.5819 178.045 36.8637 177.687 37.3021C177.513 37.0808 177.312 36.882 177.087 36.7121C177.599 36.1202 178.354 35.7446 179.195 35.7446C180.732 35.7446 181.982 36.9946 181.982 38.5311V38.895H181.982C181.975 38.9825 181.97 39.0703 181.967 39.1586ZM182.8 36.1594C182.027 34.9886 180.7 34.2142 179.195 34.2142C177.719 34.2142 176.414 34.9602 175.635 36.0945C175.471 36.0688 175.302 36.0553 175.131 36.0553C174.97 36.0553 174.813 36.0674 174.659 36.0899C175.53 34.4763 177.236 33.377 179.195 33.377C180.862 33.377 182.345 34.1723 183.288 35.4027C183.109 35.6429 182.946 35.896 182.8 36.1594ZM188.302 39.1586C188.377 39.0494 188.503 38.9774 188.646 38.9774C188.788 38.9774 188.914 39.0494 188.99 39.1586H188.302ZM190.579 39.1586C190.462 38.1956 189.64 37.4469 188.646 37.4469C187.652 37.4469 186.83 38.1956 186.713 39.1586H185.87C185.991 37.7329 187.19 36.6095 188.646 36.6095C190.102 36.6095 191.301 37.7328 191.421 39.1586H190.579ZM192.956 39.1586C192.833 36.8882 190.947 35.0789 188.646 35.0789C186.346 35.0789 184.46 36.8881 184.336 39.1586H183.498C183.623 36.4265 185.884 34.2418 188.646 34.2418C191.408 34.2418 193.67 36.4265 193.794 39.1586H192.956ZM197.909 39.1586H197.909H197.071V37.1031C197.071 36.8723 197.259 36.6845 197.49 36.6845C197.721 36.6845 197.909 36.8724 197.909 37.1031V39.1586ZM200.276 39.1586H199.439V37.1031C199.439 36.0283 198.565 35.1538 197.49 35.1538C196.415 35.1538 195.541 36.0283 195.541 37.1031V39.1586H195.325C195.293 38.2686 195.088 37.423 194.74 36.6539C194.956 35.3304 196.106 34.3166 197.49 34.3166C199.026 34.3166 200.276 35.5667 200.276 37.1031V39.1586ZM202.644 39.1586H201.807V37.1031C201.807 34.7227 199.87 32.786 197.49 32.786C195.859 32.786 194.438 33.6945 193.703 35.0317C193.514 34.8128 193.312 34.6059 193.096 34.413C194.003 32.9362 195.633 31.9489 197.49 31.9489C200.332 31.9489 202.644 34.2611 202.644 37.1031L202.644 39.1586ZM207.871 39.1586H206.583C206.56 39.0908 206.547 39.0186 206.547 38.9434C206.547 38.5688 206.852 38.264 207.226 38.264C207.601 38.264 207.906 38.5688 207.906 38.9434C207.906 39.0187 207.894 39.0909 207.871 39.1586ZM210.322 39.1586H209.426C209.433 39.0878 209.437 39.0161 209.437 38.9434C209.437 37.7249 208.445 36.7335 207.227 36.7335C206.008 36.7335 205.017 37.7249 205.017 38.9434C205.017 39.0161 205.021 39.0878 205.028 39.1586H204.175V38.3807C204.44 36.9371 205.707 35.8397 207.227 35.8397C208.938 35.8397 210.331 37.2321 210.331 38.9435C210.331 39.0159 210.327 39.0875 210.322 39.1586ZM213.247 39.1586H211.855C211.859 39.0873 211.861 39.0157 211.861 38.9434C211.861 36.388 209.782 34.309 207.227 34.309C205.976 34.309 204.841 34.8089 204.006 35.6174C203.915 35.2184 203.79 34.8326 203.631 34.4641C203.726 34.4592 203.821 34.456 203.911 34.453C204.368 34.4381 204.842 34.4229 205.278 34.2423C205.731 34.0551 206.104 33.71 206.433 33.4055C206.691 33.1662 207.045 32.8384 207.227 32.8384C207.408 32.8384 207.762 33.1661 208.021 33.4057C208.35 33.71 208.722 34.0549 209.174 34.242C209.611 34.4229 210.085 34.4382 210.543 34.4531C210.924 34.4656 211.398 34.481 211.544 34.6265C211.689 34.7722 211.705 35.2465 211.717 35.6274C211.732 36.0855 211.747 36.5592 211.928 36.9958C212.115 37.4481 212.46 37.8206 212.764 38.1493C213.004 38.4078 213.332 38.7617 213.332 38.944C213.332 39.0012 213.299 39.0755 213.247 39.1586ZM203.351 59.2112C203.351 59.9047 202.786 60.469 202.093 60.469H185.908C185.214 60.469 184.65 59.9047 184.65 59.2112V58.6274C185.889 58.8951 187.164 59.0322 188.462 59.0322H199.539C200.846 59.0322 202.122 58.8901 203.351 58.6228V59.2112Z" fill="#FFD600"/>
</g>
<defs>
<filter id="filter0_d_4_61" x="153.21" y="12" width="362.624" height="105.401" filterUnits="userSpaceOnUse" color-interpolation-filters="sRGB">
<feFlood flood-opacity="0" result="BackgroundImageFix"/>
<feColorMatrix in="SourceAlpha" type="matrix" values="0 0 0 0 0 0 0 0 0 0 0 0 0 0 0 0 0 0 127 0" result="hardAlpha"/>
<feOffset dy="4"/>
<feGaussianBlur stdDeviation="2"/>
<feComposite in2="hardAlpha" operator="out"/>
<feColorMatrix type="matrix" values="0 0 0 0 0 0 0 0 0 0 0 0 0 0 0 0 0 0 0.25 0"/>
<feBlend mode="normal" in2="BackgroundImageFix" result="effect1_dropShadow_4_61"/>
<feBlend mode="normal" in="SourceGraphic" in2="effect1_dropShadow_4_61" result="shape"/>
</filter>
</defs>
</svg>
