<?xml version="1.0" encoding="iso-8859-1"?>
<!-- Generator: Adobe Illustrator 19.0.0, SVG Export Plug-In . SVG Version: 6.00 Build 0)  -->
<svg version="1.1" id="Layer_1" xmlns="http://www.w3.org/2000/svg" xmlns:xlink="http://www.w3.org/1999/xlink" x="0px" y="0px"
	 viewBox="0 0 512 512" style="enable-background:new 0 0 512 512;" xml:space="preserve">
<g>
	<g>
		<g>
			<path d="M470.573,350.316H72.618c-4.466,0-8.084,3.618-8.084,8.084c0,4.466,3.618,8.084,8.084,8.084h397.955
				c4.466,0,8.084-3.618,8.084-8.084C478.657,353.934,475.039,350.316,470.573,350.316z"/>
			<path d="M8.084,285.642H9.16c4.466,0,8.084-3.618,8.084-8.084c0-4.466-3.619-8.084-8.084-8.084H8.084
				c-4.466,0-8.084,3.618-8.084,8.084C0,282.024,3.619,285.642,8.084,285.642z"/>
			<path d="M40.351,350.316h-1.075c-4.466,0-8.084,3.618-8.084,8.084c0,4.466,3.618,8.084,8.084,8.084h1.075
				c4.466,0,8.084-3.618,8.084-8.084C48.435,353.934,44.816,350.316,40.351,350.316z"/>
			<path d="M400.662,253.305c-13.354,0-24.217,10.88-24.217,24.253c0,13.372,10.863,24.253,24.217,24.253
				s24.218-10.88,24.218-24.253C424.88,264.186,414.016,253.305,400.662,253.305z M400.662,285.642
				c-4.438,0-8.049-3.626-8.049-8.084c0-4.458,3.611-8.084,8.049-8.084c4.439,0,8.05,3.626,8.05,8.084
				C408.712,282.016,405.101,285.642,400.662,285.642z"/>
			<path d="M37.68,309.895c0-4.466-3.619-8.084-8.084-8.084H8.084c-4.466,0-8.084,3.618-8.084,8.084
				c0,4.466,3.619,8.084,8.084,8.084h21.512C34.061,317.979,37.68,314.36,37.68,309.895z"/>
			<path d="M9.16,350.316H8.084C3.619,350.316,0,353.934,0,358.4c0,4.466,3.619,8.084,8.084,8.084H9.16
				c4.466,0,8.084-3.618,8.084-8.084C17.244,353.934,13.626,350.316,9.16,350.316z"/>
			<path d="M325.911,253.305h-1.076c-4.466,0-8.084,3.619-8.084,8.084c0,4.466,3.619,8.084,8.084,8.084h1.076
				c4.466,0,8.084-3.618,8.084-8.084C333.995,256.924,330.377,253.305,325.911,253.305z"/>
			<path d="M510.923,293.725c0-22.628-15.168-42.773-36.884-48.991l-35.686-10.218c-0.457-0.131-0.917-0.22-1.376-0.269
				c-9.825-8.283-22.499-13.277-36.314-13.277c-2.658,0-5.277,0.185-7.841,0.543c-0.224-0.086-0.454-0.163-0.69-0.231
				l-86.807-24.856c-18.059-5.171-36.74-7.793-55.522-7.793c-25.827,0-51.08,4.873-75.059,14.487l-12.795,5.13l-12.789-42.724
				c-3.582-11.968-14.37-20.008-26.845-20.008H28.026C12.573,145.516,0,158.108,0,173.585c0,10.698,5.935,20.318,15.488,25.104
				l1.402,0.702c3.385,1.697,5.778,4.945,6.401,8.69l8.979,53.995c0.371,39.802,32.802,72.071,72.615,72.071
				c13.925,0,26.947-3.946,38.01-10.784c0.095,0.003,0.19,0.005,0.286,0.005h224.357c9.312,6.779,20.76,10.779,33.126,10.779
				c12.366,0,23.813-4,33.127-10.779h47.539C497.649,323.368,510.924,310.07,510.923,293.725z M39.241,205.427
				c-1.469-8.827-7.116-16.486-15.108-20.492l-1.403-0.702c-4.047-2.029-6.561-6.108-6.561-10.648c0-6.562,5.319-11.901,11.858-11.9
				h94.288c5.274,0,9.839,3.406,11.357,8.475l8.652,28.906c-10.938-6.623-23.753-10.435-37.438-10.435
				c-26.558,0-49.833,14.358-62.495,35.734L39.241,205.427z M104.885,317.979c-31.079,0-56.373-25.307-56.449-56.445
				c0.002-0.089,0.002-0.181,0-0.272C48.503,230.115,73.8,204.8,104.885,204.8c31.126,0,56.449,25.387,56.449,56.589
				S136.011,317.979,104.885,317.979z M161.263,307.2c8.55-10.544,14.221-23.526,15.794-37.726h121.427
				c4.466,0,8.084-3.618,8.084-8.084c0-4.466-3.618-8.084-8.084-8.084H177.057c-1.192-10.757-4.736-20.818-10.102-29.646
				l13.806-5.534c22.057-8.842,45.286-13.325,69.042-13.325c17.277,0,34.459,2.411,51.072,7.168l67.35,19.286
				c-14.533,10.25-24.047,27.186-24.047,46.304c0,10.86,3.07,21.017,8.385,29.642H161.263z M400.662,317.979
				c-22.23,0-40.315-18.132-40.315-40.421c0-22.289,18.085-40.421,40.315-40.421c22.231,0,40.315,18.132,40.315,40.421
				S422.893,317.979,400.662,317.979z M481.33,307.2h-32.569c5.314-8.625,8.385-18.782,8.385-29.642
				c0-7.848-1.603-15.33-4.499-22.131l16.942,4.852c14.818,4.243,25.167,17.997,25.167,33.448
				C494.756,301.156,488.733,307.2,481.33,307.2z"/>
			<path d="M503.916,350.316h-1.076c-4.466,0-8.084,3.618-8.084,8.084c0,4.466,3.618,8.084,8.084,8.084h1.076
				c4.466,0,8.084-3.618,8.084-8.084C512,353.934,508.382,350.316,503.916,350.316z"/>
			<path d="M104.885,220.968c-22.25,0-40.351,18.132-40.351,40.421c0,22.289,18.1,40.421,40.35,40.421s40.351-18.132,40.351-40.421
				C145.234,239.101,127.134,220.968,104.885,220.968z M104.885,285.642c-13.334,0-24.183-10.88-24.183-24.253
				c0-13.372,10.847-24.253,24.182-24.253s24.183,10.88,24.183,24.253C129.066,274.762,118.218,285.642,104.885,285.642z"/>
		</g>
	</g>
</g>
<g>
</g>
<g>
</g>
<g>
</g>
<g>
</g>
<g>
</g>
<g>
</g>
<g>
</g>
<g>
</g>
<g>
</g>
<g>
</g>
<g>
</g>
<g>
</g>
<g>
</g>
<g>
</g>
<g>
</g>
</svg>
