<?xml version="1.0" encoding="iso-8859-1"?>
<!-- Generator: Adobe Illustrator 17.1.0, SVG Export Plug-In . SVG Version: 6.00 Build 0)  -->
<!DOCTYPE svg PUBLIC "-//W3C//DTD SVG 1.1//EN" "http://www.w3.org/Graphics/SVG/1.1/DTD/svg11.dtd">
<svg version="1.1" id="Capa_1" xmlns="http://www.w3.org/2000/svg" xmlns:xlink="http://www.w3.org/1999/xlink" x="0px" y="0px"
	 viewBox="0 0 512 512" style="enable-background:new 0 0 512 512;" xml:space="preserve">
<g>
	<path d="M512,164v-32c0-13.234-10.766-24-24-24H317.975C310.852,80.427,285.767,60,256,60s-54.852,20.427-61.975,48H24
		c-13.234,0-24,10.766-24,24v32c0,10.474,6.747,19.396,16.12,22.665C16.047,187.1,16,187.544,16,188v248H8c-4.418,0-8,3.582-8,8
		s3.582,8,8,8h496c4.418,0,8-3.582,8-8s-3.582-8-8-8h-8V188c0-0.456-0.047-0.9-0.12-1.335C505.253,183.396,512,174.474,512,164z
		 M256,76c26.467,0,48,21.533,48,48s-21.533,48-48,48s-48-21.533-48-48S229.533,76,256,76z M16,132c0-4.411,3.589-8,8-8h168
		c0,19.101,8.422,36.263,21.736,48H24c-4.411,0-8-3.589-8-8V132z M152,228v16c0,8.822-7.178,16-16,16s-16-7.178-16-16v-16H152z
		 M200,228v16c0,8.822-7.178,16-16,16s-16-7.178-16-16v-16H200z M248,228v16c0,8.822-7.178,16-16,16s-16-7.178-16-16v-16H248z
		 M296,228v16c0,8.822-7.178,16-16,16s-16-7.178-16-16v-16H296z M344,228v16c0,8.822-7.178,16-16,16s-16-7.178-16-16v-16H344z
		 M392,228v16c0,8.822-7.178,16-16,16s-16-7.178-16-16v-16H392z M440,228v16c0,8.822-7.178,16-16,16s-16-7.178-16-16v-16H440z
		 M104,244c0,8.822-7.178,16-16,16s-16-7.178-16-16v-16h32V244z M72,271.695C76.711,274.427,82.173,276,88,276
		c9.551,0,18.132-4.211,24-10.868c5.868,6.657,14.449,10.868,24,10.868s18.132-4.211,24-10.868c5.868,6.657,14.449,10.868,24,10.868
		s18.132-4.211,24-10.868c5.868,6.657,14.449,10.868,24,10.868s18.132-4.211,24-10.868c5.868,6.657,14.449,10.868,24,10.868
		s18.132-4.211,24-10.868c5.868,6.657,14.449,10.868,24,10.868s18.132-4.211,24-10.868c5.868,6.657,14.449,10.868,24,10.868
		s18.132-4.211,24-10.868c5.868,6.657,14.449,10.868,24,10.868c5.827,0,11.289-1.573,16-4.305V436h-16V308c0-4.418-3.582-8-8-8h-64
		c-4.418,0-8,3.582-8,8v128h-16v-72c0-4.418-3.582-8-8-8s-8,3.582-8,8v40h-16c-4.418,0-8,3.582-8,8v24h-8v-40h16
		c4.418,0,8-3.582,8-8s-3.582-8-8-8h-48c-4.418,0-8,3.582-8,8s3.582,8,8,8h16v40h-8v-24c0-4.418-3.582-8-8-8h-16v-40
		c0-4.418-3.582-8-8-8s-8,3.582-8,8v72h-16v-72c0-4.418-3.582-8-8-8s-8,3.582-8,8v40h-16c-4.418,0-8,3.582-8,8v24h-8v-40h16
		c4.418,0,8-3.582,8-8s-3.582-8-8-8h-48c-4.418,0-8,3.582-8,8s3.582,8,8,8h16v40h-8v-24c0-4.418-3.582-8-8-8h-16v-40
		c0-4.418-3.582-8-8-8s-8,3.582-8,8v72H72V271.695z M408,380c-4.418,0-8,3.582-8,8s3.582,8,8,8v40h-48V316h48V380z M304,420h8v16h-8
		V420z M232,420h8v16h-8V420z M176,420h8v16h-8V420z M104,420h8v16h-8V420z M456,436V220c0-4.418-3.582-8-8-8H64
		c-4.418,0-8,3.582-8,8v216H32V188h448v248H456z M496,164c0,4.411-3.589,8-8,8H298.264C311.578,160.263,320,143.101,320,124h168
		c4.411,0,8,3.589,8,8V164z"/>
	<path d="M272,156c4.418,0,8-3.582,8-8v-48c0-4.418-3.582-8-8-8s-8,3.582-8,8v48C264,152.418,267.582,156,272,156z"/>
	<path d="M240,116c4.418,0,8-3.582,8-8v-8c0-4.418-3.582-8-8-8s-8,3.582-8,8v8C232,112.418,235.582,116,240,116z"/>
	<path d="M240,156c4.418,0,8-3.582,8-8v-16c0-4.418-3.582-8-8-8s-8,3.582-8,8v16C232,152.418,235.582,156,240,156z"/>
	<path d="M160,156h16c4.418,0,8-3.582,8-8s-3.582-8-8-8h-16c-4.418,0-8,3.582-8,8S155.582,156,160,156z"/>
	<path d="M352,140h-16c-4.418,0-8,3.582-8,8s3.582,8,8,8h16c4.418,0,8-3.582,8-8S356.418,140,352,140z"/>
	<path d="M56,156h72c4.418,0,8-3.582,8-8s-3.582-8-8-8H56c-4.418,0-8,3.582-8,8S51.582,156,56,156z"/>
	<path d="M456,140h-72c-4.418,0-8,3.582-8,8s3.582,8,8,8h72c4.418,0,8-3.582,8-8S460.418,140,456,140z"/>
</g>
<g>
</g>
<g>
</g>
<g>
</g>
<g>
</g>
<g>
</g>
<g>
</g>
<g>
</g>
<g>
</g>
<g>
</g>
<g>
</g>
<g>
</g>
<g>
</g>
<g>
</g>
<g>
</g>
<g>
</g>
</svg>
