<svg width="224" height="57" viewBox="0 0 224 57" fill="none" xmlns="http://www.w3.org/2000/svg">
<g filter="url(#filter0_d_5_2)">
<path d="M65.7969 40H46.5977V11.9922H65.7969V17.5977H52.2031V23.2031H61.4023V28.8086H52.2031V34.3945H65.7969V40ZM88.8242 40H87.5352L85.4648 37.1289C84.957 37.5846 84.4167 38.0143 83.8438 38.418C83.2839 38.8086 82.6914 39.1536 82.0664 39.4531C81.4414 39.7396 80.7969 39.9674 80.1328 40.1367C79.4818 40.306 78.8177 40.3906 78.1406 40.3906C76.6693 40.3906 75.2826 40.1432 73.9805 39.6484C72.6914 39.1536 71.5586 38.4375 70.582 37.5C69.6185 36.5495 68.8568 35.3906 68.2969 34.0234C67.737 32.6562 67.457 31.1003 67.457 29.3555C67.457 27.7279 67.737 26.237 68.2969 24.8828C68.8568 23.5156 69.6185 22.3438 70.582 21.3672C71.5586 20.3906 72.6914 19.6354 73.9805 19.1016C75.2826 18.5547 76.6693 18.2812 78.1406 18.2812C78.8177 18.2812 79.4883 18.3659 80.1523 18.5352C80.8164 18.7044 81.4609 18.9388 82.0859 19.2383C82.7109 19.5378 83.3034 19.8893 83.8633 20.293C84.4362 20.6966 84.9701 21.1328 85.4648 21.6016L87.5352 19.1211H88.8242V40ZM83.4531 29.3555C83.4531 28.6263 83.3099 27.9232 83.0234 27.2461C82.75 26.556 82.3724 25.9505 81.8906 25.4297C81.4089 24.8958 80.8424 24.4727 80.1914 24.1602C79.5534 23.8346 78.8698 23.6719 78.1406 23.6719C77.4115 23.6719 76.7214 23.7956 76.0703 24.043C75.4323 24.2904 74.8724 24.6549 74.3906 25.1367C73.9219 25.6185 73.5508 26.2174 73.2773 26.9336C73.0039 27.6367 72.8672 28.444 72.8672 29.3555C72.8672 30.2669 73.0039 31.0807 73.2773 31.7969C73.5508 32.5 73.9219 33.0924 74.3906 33.5742C74.8724 34.056 75.4323 34.4206 76.0703 34.668C76.7214 34.9154 77.4115 35.0391 78.1406 35.0391C78.8698 35.0391 79.5534 34.8828 80.1914 34.5703C80.8424 34.2448 81.4089 33.8216 81.8906 33.3008C82.3724 32.7669 82.75 32.1615 83.0234 31.4844C83.3099 30.7943 83.4531 30.0846 83.4531 29.3555ZM104.391 40H92.2031V34.6875H104.391C104.755 34.6875 105.068 34.5573 105.328 34.2969C105.589 34.0365 105.719 33.724 105.719 33.3594C105.719 32.9818 105.589 32.7344 105.328 32.6172C105.068 32.5 104.755 32.4414 104.391 32.4414H98.8438C97.9193 32.4414 97.0534 32.2656 96.2461 31.9141C95.4388 31.5625 94.7357 31.0872 94.1367 30.4883C93.5378 29.8763 93.0625 29.1667 92.7109 28.3594C92.3724 27.5521 92.2031 26.6862 92.2031 25.7617C92.2031 24.8372 92.3724 23.9714 92.7109 23.1641C93.0625 22.3568 93.5378 21.6536 94.1367 21.0547C94.7357 20.4557 95.4388 19.987 96.2461 19.6484C97.0534 19.2969 97.9193 19.1211 98.8438 19.1211H109.645V24.4336H98.8438C98.4792 24.4336 98.1667 24.5638 97.9062 24.8242C97.6458 25.0846 97.5156 25.3971 97.5156 25.7617C97.5156 26.1393 97.6458 26.4648 97.9062 26.7383C98.1667 26.9987 98.4792 27.1289 98.8438 27.1289H104.391C105.302 27.1289 106.161 27.2852 106.969 27.5977C107.776 27.8971 108.479 28.3203 109.078 28.8672C109.677 29.4141 110.152 30.0716 110.504 30.8398C110.855 31.6081 111.031 32.4479 111.031 33.3594C111.031 34.2839 110.855 35.1497 110.504 35.957C110.152 36.7513 109.677 37.4544 109.078 38.0664C108.479 38.6654 107.776 39.1406 106.969 39.4922C106.161 39.8307 105.302 40 104.391 40ZM118.922 47.9688V42.5977L121.891 42.6367C122.411 42.6367 122.913 42.5521 123.395 42.3828C123.876 42.2135 124.319 41.9792 124.723 41.6797C125.139 41.3802 125.504 41.0221 125.816 40.6055C126.129 40.2018 126.383 39.7591 126.578 39.2773C125.992 39.5247 125.393 39.7721 124.781 40.0195C124.182 40.2669 123.577 40.3906 122.965 40.3906C121.676 40.3906 120.465 40.1628 119.332 39.707C118.199 39.2513 117.203 38.6068 116.344 37.7734C115.497 36.9271 114.827 35.9049 114.332 34.707C113.85 33.4961 113.609 32.1419 113.609 30.6445V19.082H118.922V30.6445C118.922 31.3867 119.026 32.0378 119.234 32.5977C119.456 33.1445 119.749 33.6068 120.113 33.9844C120.478 34.349 120.901 34.6224 121.383 34.8047C121.878 34.987 122.405 35.0781 122.965 35.0781C123.512 35.0781 124.026 34.9544 124.508 34.707C125.003 34.4466 125.432 34.1081 125.797 33.6914C126.161 33.2747 126.448 32.806 126.656 32.2852C126.865 31.7513 126.969 31.2044 126.969 30.6445V19.082H132.34V37.3633C132.327 38.8346 132.04 40.2148 131.48 41.5039C130.921 42.793 130.152 43.9193 129.176 44.8828C128.212 45.8464 127.086 46.6081 125.797 47.168C124.508 47.7279 123.128 48.0078 121.656 48.0078L118.922 47.9688ZM164.781 40H159.195V20C159.195 19.6094 159.117 19.2448 158.961 18.9062C158.818 18.5677 158.616 18.2747 158.355 18.0273C158.108 17.7669 157.815 17.5651 157.477 17.4219C157.138 17.2786 156.773 17.207 156.383 17.207C155.992 17.207 155.628 17.2786 155.289 17.4219C154.951 17.5651 154.651 17.7669 154.391 18.0273C154.143 18.2747 153.948 18.5677 153.805 18.9062C153.661 19.2448 153.59 19.6094 153.59 20V40H147.984V20C147.984 19.6094 147.913 19.2448 147.77 18.9062C147.626 18.5677 147.424 18.2747 147.164 18.0273C146.917 17.7669 146.624 17.5651 146.285 17.4219C145.947 17.2786 145.582 17.207 145.191 17.207C144.801 17.207 144.436 17.2786 144.098 17.4219C143.759 17.5651 143.46 17.7669 143.199 18.0273C142.952 18.2747 142.757 18.5677 142.613 18.9062C142.47 19.2448 142.398 19.6094 142.398 20V40H136.793V20C136.793 18.8411 137.008 17.7539 137.438 16.7383C137.88 15.7096 138.479 14.8177 139.234 14.0625C140.003 13.2943 140.895 12.6953 141.91 12.2656C142.939 11.8229 144.033 11.6016 145.191 11.6016C146.233 11.6016 147.236 11.7904 148.199 12.168C149.163 12.5326 150.029 13.0664 150.797 13.7695C151.565 13.0664 152.424 12.5326 153.375 12.168C154.339 11.7904 155.341 11.6016 156.383 11.6016C157.542 11.6016 158.629 11.8229 159.645 12.2656C160.673 12.6953 161.565 13.2943 162.32 14.0625C163.089 14.8177 163.688 15.7096 164.117 16.7383C164.56 17.7539 164.781 18.8411 164.781 20V40ZM177.32 34.8828C177.529 34.9479 177.737 34.9935 177.945 35.0195C178.154 35.0326 178.362 35.0391 178.57 35.0391C179.091 35.0391 179.592 34.9674 180.074 34.8242C180.556 34.681 181.005 34.4792 181.422 34.2188C181.852 33.9453 182.229 33.6198 182.555 33.2422C182.893 32.8516 183.167 32.4219 183.375 31.9531L187.281 35.8789C186.786 36.582 186.214 37.2135 185.562 37.7734C184.924 38.3333 184.228 38.8086 183.473 39.1992C182.73 39.5898 181.943 39.8828 181.109 40.0781C180.289 40.2865 179.443 40.3906 178.57 40.3906C177.099 40.3906 175.712 40.1172 174.41 39.5703C173.121 39.0234 171.988 38.2617 171.012 37.2852C170.048 36.3086 169.286 35.1497 168.727 33.8086C168.167 32.4544 167.887 30.9701 167.887 29.3555C167.887 27.7018 168.167 26.1914 168.727 24.8242C169.286 23.457 170.048 22.2917 171.012 21.3281C171.988 20.3646 173.121 19.6159 174.41 19.082C175.712 18.5482 177.099 18.2812 178.57 18.2812C179.443 18.2812 180.296 18.3854 181.129 18.5938C181.962 18.8021 182.75 19.1016 183.492 19.4922C184.247 19.8828 184.951 20.3646 185.602 20.9375C186.253 21.4974 186.826 22.1289 187.32 22.832L177.32 34.8828ZM180.055 23.8867C179.807 23.7956 179.56 23.737 179.312 23.7109C179.078 23.6849 178.831 23.6719 178.57 23.6719C177.841 23.6719 177.151 23.8086 176.5 24.082C175.862 24.3424 175.302 24.7201 174.82 25.2148C174.352 25.7096 173.98 26.3086 173.707 27.0117C173.434 27.7018 173.297 28.4831 173.297 29.3555C173.297 29.5508 173.303 29.7721 173.316 30.0195C173.342 30.2669 173.375 30.5208 173.414 30.7812C173.466 31.0286 173.525 31.2695 173.59 31.5039C173.655 31.7383 173.74 31.9466 173.844 32.1289L180.055 23.8867ZM210.113 40H208.824L206.754 37.1289C206.246 37.5846 205.706 38.0143 205.133 38.418C204.573 38.8086 203.98 39.1536 203.355 39.4531C202.73 39.7396 202.086 39.9674 201.422 40.1367C200.771 40.306 200.107 40.3906 199.43 40.3906C197.958 40.3906 196.572 40.1432 195.27 39.6484C193.98 39.1536 192.848 38.4375 191.871 37.5C190.908 36.5495 190.146 35.3906 189.586 34.0234C189.026 32.6562 188.746 31.1003 188.746 29.3555C188.746 27.7279 189.026 26.237 189.586 24.8828C190.146 23.5156 190.908 22.3438 191.871 21.3672C192.848 20.3906 193.98 19.6354 195.27 19.1016C196.572 18.5547 197.958 18.2812 199.43 18.2812C200.107 18.2812 200.777 18.3659 201.441 18.5352C202.105 18.7044 202.75 18.9388 203.375 19.2383C204 19.5378 204.592 19.8893 205.152 20.293C205.725 20.6966 206.259 21.1328 206.754 21.6016L208.824 19.1211H210.113V40ZM204.742 29.3555C204.742 28.6263 204.599 27.9232 204.312 27.2461C204.039 26.556 203.661 25.9505 203.18 25.4297C202.698 24.8958 202.132 24.4727 201.48 24.1602C200.842 23.8346 200.159 23.6719 199.43 23.6719C198.701 23.6719 198.01 23.7956 197.359 24.043C196.721 24.2904 196.161 24.6549 195.68 25.1367C195.211 25.6185 194.84 26.2174 194.566 26.9336C194.293 27.6367 194.156 28.444 194.156 29.3555C194.156 30.2669 194.293 31.0807 194.566 31.7969C194.84 32.5 195.211 33.0924 195.68 33.5742C196.161 34.056 196.721 34.4206 197.359 34.668C198.01 34.9154 198.701 35.0391 199.43 35.0391C200.159 35.0391 200.842 34.8828 201.48 34.5703C202.132 34.2448 202.698 33.8216 203.18 33.3008C203.661 32.7669 204.039 32.1615 204.312 31.4844C204.599 30.7943 204.742 30.0846 204.742 29.3555ZM219.566 40H214.195V10.7617H219.566V40Z" fill="#FFD600"/>
<path d="M38.5549 34.4005C38.2752 34.2108 37.8944 34.2836 37.7045 34.5634C35.6108 37.6487 32.1441 39.4907 28.4309 39.4907C28.0927 39.4907 27.8186 39.7648 27.8186 40.1029C27.8186 40.4411 28.0927 40.7152 28.4309 40.7152C32.5503 40.7152 36.3958 38.6725 38.7177 35.2511C38.9076 34.9712 38.8347 34.5905 38.5549 34.4005Z" fill="#FFD600"/>
<path d="M40.2527 28.6397C39.9138 28.6125 39.6204 28.8638 39.5932 29.2008C39.4986 30.3759 39.22 31.522 38.7653 32.607C38.6345 32.9188 38.7814 33.2776 39.0932 33.4083C39.1705 33.4407 39.2507 33.456 39.3297 33.456C39.569 33.456 39.7963 33.3148 39.8946 33.0802C40.3995 31.8755 40.7088 30.6034 40.8138 29.299C40.841 28.962 40.5897 28.6669 40.2527 28.6397Z" fill="#FFD600"/>
<path d="M18.9968 16.4512H14.6224C13.4691 16.4512 12.5309 15.513 12.5309 14.3597C12.5309 13.2065 13.4691 12.2682 14.6224 12.2682H16.6352C16.9734 12.2682 17.2475 11.9941 17.2475 11.656C17.2475 11.3178 16.9734 11.0437 16.6352 11.0437H14.6224C12.7939 11.0437 11.3064 12.5313 11.3064 14.3597C11.3064 16.1883 12.7939 17.6758 14.6224 17.6758H18.9968C19.335 17.6758 19.609 17.4016 19.609 17.0635C19.609 16.7254 19.335 16.4512 18.9968 16.4512Z" fill="#FFD600"/>
<path d="M21.0548 5H18.3884C18.0502 5 17.7761 5.27414 17.7761 5.61226C17.7761 5.95038 18.0502 6.22452 18.3884 6.22452H21.0547C22.3834 6.22452 23.4643 7.30553 23.4643 8.63419C23.4643 9.96285 22.3834 11.0438 21.0547 11.0438H18.6932C18.355 11.0438 18.0809 11.3179 18.0809 11.656C18.0809 11.9942 18.355 12.2683 18.6932 12.2683H21.0547C23.0585 12.2683 24.6888 10.638 24.6888 8.63419C24.6888 6.6303 23.0586 5 21.0548 5Z" fill="#FFD600"/>
<path d="M34.0959 13.0658H29.2345C28.2213 13.0658 27.3968 12.2414 27.3968 11.2282C27.3968 10.215 28.2212 9.39059 29.2345 9.39059H30.9247C31.2629 9.39059 31.537 9.11645 31.537 8.77833C31.537 8.44021 31.2629 8.16607 30.9247 8.16607H29.2345C27.546 8.16607 26.1724 9.53973 26.1724 11.2281C26.1724 12.9166 27.5461 14.2902 29.2345 14.2902H34.0959C34.8901 14.2902 35.5364 14.9363 35.5364 15.7305V17.0633C35.5364 17.4015 35.8105 17.6756 36.1487 17.6756C36.4869 17.6756 36.7609 17.4015 36.7609 17.0633V15.7305C36.7609 14.2613 35.5654 13.0658 34.0959 13.0658Z" fill="#FFD600"/>
<path d="M41.1999 26.7269H40.6779C40.6851 26.6708 40.6899 26.6139 40.6899 26.5551C40.6901 25.9297 40.2576 25.4627 39.9101 25.0875C39.728 24.8909 39.5396 24.6876 39.4738 24.5285C39.4143 24.385 39.4058 24.1193 39.3974 23.8623C39.3805 23.342 39.3593 22.6945 38.9007 22.2356C38.442 21.7769 37.7943 21.7558 37.2739 21.7388C37.017 21.7304 36.7513 21.7219 36.6078 21.6624C36.4487 21.5966 36.2454 21.4083 36.0487 21.2263C35.6735 20.8789 35.2065 20.4464 34.581 20.4464C33.9562 20.4464 33.4894 20.8787 33.1142 21.226C32.9175 21.4082 32.714 21.5967 32.5546 21.6625C32.4112 21.7219 32.1456 21.7304 31.8887 21.7388C31.6217 21.7474 31.3217 21.7578 31.0304 21.8273C30.0519 20.5561 28.5162 19.7348 26.7917 19.7348C24.8943 19.7348 23.2252 20.7286 22.2758 22.2225C21.5152 21.8063 20.6432 21.5692 19.7167 21.5692C19.4517 21.5692 19.1914 21.5893 18.9368 21.6267C18.6278 20.5363 17.6243 19.7349 16.4361 19.7349C15.395 19.7349 14.4955 20.3506 14.0809 21.2367C13.4834 21.0051 12.8346 20.8775 12.1562 20.8775C9.56605 20.8775 7.40075 22.7285 6.91208 25.1769C6.54076 25.6201 6.31451 26.1883 6.30607 26.8085C5.68483 27.016 5.23522 27.6022 5.23522 28.2924C5.23522 31.8477 6.5513 35.26 8.94097 37.9009C9.16808 38.1518 9.55511 38.171 9.80581 37.9441C10.0565 37.7172 10.076 37.3301 9.84901 37.0794C9.0141 36.1567 8.32309 35.1309 7.787 34.0344H13.0918C13.43 34.0344 13.7041 33.7602 13.7041 33.4221C13.7041 33.084 13.43 32.8099 13.0918 32.8099H7.2645C7.0606 32.2559 6.89443 31.6881 6.76701 31.1099H26.2517C26.5899 31.1099 26.864 30.8358 26.864 30.4977C26.864 30.1596 26.5899 29.8854 26.2517 29.8854H6.55755C6.49326 29.3596 6.4599 28.8278 6.4599 28.2924C6.4599 28.1046 6.61271 27.9518 6.8006 27.9518H41.1999C41.3877 27.9518 41.5405 28.1046 41.5405 28.2924C41.5405 35.5209 35.6596 41.4017 28.4311 41.4017H19.5693C16.6427 41.4017 13.8727 40.4546 11.5585 38.6625C11.2912 38.4554 10.9065 38.5043 10.6996 38.7717C10.4926 39.039 10.5414 39.4236 10.8088 39.6306C12.176 40.6892 13.6888 41.4777 15.2955 41.9795V42.7692C15.2955 43.9992 16.2961 44.9999 17.5262 44.9999H30.4743C31.7044 44.9999 32.7051 43.9992 32.7051 42.7692V41.9753C38.5279 40.1525 42.765 34.708 42.765 28.2922C42.7649 27.429 42.0629 26.7269 41.1999 26.7269ZM16.4364 20.9591C17.0589 20.9591 17.5854 21.3753 17.7542 21.9438C17.214 22.1578 16.7165 22.4566 16.2788 22.8249C15.9578 22.4363 15.5835 22.0933 15.1665 21.808C15.3736 21.3101 15.8646 20.9591 16.4364 20.9591ZM7.53583 26.7269C7.59544 26.0233 8.18614 25.4687 8.90488 25.4687C9.6237 25.4687 10.2144 26.0233 10.274 26.7269H7.53583ZM12.4913 26.7269H12.4913H11.8215V26.225C11.8215 26.0403 11.9718 25.8901 12.1565 25.8901C12.3412 25.8901 12.4913 26.0404 12.4913 26.225V26.7269ZM14.3738 26.7269H13.7157V26.225C13.7157 25.3651 13.0162 24.6655 12.1563 24.6655C11.6694 24.6655 11.2356 24.8909 10.9498 25.2417C10.8108 25.0646 10.6496 24.9056 10.4699 24.7697C10.8789 24.2962 11.483 23.9957 12.1563 23.9957C13.3855 23.9957 14.3855 24.9957 14.3855 26.2249V26.516H14.3855C14.3804 26.586 14.3762 26.6562 14.3738 26.7269ZM15.0397 24.3275C14.4216 23.3909 13.3602 22.7713 12.1564 22.7713C10.9749 22.7713 9.93089 23.3681 9.30792 24.2756C9.17652 24.2551 9.04191 24.2442 8.9048 24.2442C8.77637 24.2442 8.65027 24.2539 8.52684 24.272C9.22402 22.981 10.589 22.1016 12.1563 22.1016C13.4894 22.1016 14.6763 22.7378 15.4305 23.7222C15.2871 23.9143 15.1568 24.1168 15.0397 24.3275ZM19.4415 26.7269C19.502 26.6395 19.6028 26.5819 19.7168 26.5819C19.8308 26.5819 19.9315 26.6395 19.9919 26.7269H19.4415ZM21.2634 26.7269C21.1692 25.9565 20.5123 25.3575 19.7169 25.3575C18.9214 25.3575 18.2643 25.9565 18.1702 26.7269H17.4964C17.5931 25.5863 18.5517 24.6876 19.7168 24.6876C20.882 24.6876 21.8405 25.5862 21.9371 26.7269H21.2634ZM23.1649 26.7269C23.066 24.9105 21.5574 23.4631 19.717 23.4631C17.8764 23.4631 16.3678 24.9105 16.2689 26.7269H15.5984C15.6981 24.5412 17.5071 22.7935 19.717 22.7935C21.9268 22.7935 23.7357 24.5412 23.8354 26.7269H23.1649ZM27.1269 26.7269H27.1268H26.4571V25.0825C26.4571 24.8978 26.6073 24.7476 26.7919 24.7476C26.9767 24.7476 27.1269 24.8979 27.1269 25.0825V26.7269ZM29.021 26.7269H28.3514V25.0825C28.3514 24.2227 27.6518 23.5231 26.7918 23.5231C25.9321 23.5231 25.2325 24.2227 25.2325 25.0825V26.7269H25.0597C25.0347 26.0149 24.8701 25.3384 24.5921 24.7231C24.7645 23.6643 25.6851 22.8533 26.7918 22.8533C28.0211 22.8533 29.021 23.8534 29.021 25.0825V26.7269ZM30.9153 26.7269H30.2456V25.0825C30.2456 23.1781 28.6963 21.6288 26.7918 21.6288C25.4876 21.6288 24.3501 22.3556 23.7627 23.4254C23.6113 23.2502 23.4494 23.0847 23.2768 22.9304C24.0026 21.7489 25.3065 20.9591 26.7919 20.9591C29.0657 20.9591 30.9155 22.8088 30.9155 25.0825L30.9153 26.7269ZM35.0967 26.7269H34.0662C34.048 26.6726 34.0377 26.6149 34.0377 26.5548C34.0377 26.2551 34.2815 26.0112 34.5812 26.0112C34.881 26.0112 35.1249 26.2551 35.1249 26.5548C35.1251 26.615 35.1148 26.6727 35.0967 26.7269ZM37.0574 26.7269H36.3405C36.3461 26.6702 36.3496 26.6129 36.3496 26.5548C36.3496 25.5799 35.5564 24.7868 34.5813 24.7868C33.6066 24.7868 32.8134 25.5799 32.8134 26.5548C32.8134 26.6129 32.817 26.6702 32.8225 26.7269H32.1398V26.1046C32.3523 24.9497 33.3659 24.0717 34.5813 24.0717C35.9505 24.0717 37.0645 25.1857 37.0645 26.5548C37.0645 26.6127 37.0614 26.67 37.0574 26.7269ZM39.3977 26.7269H38.2843C38.2869 26.6698 38.289 26.6126 38.289 26.5548C38.289 24.5104 36.6258 22.8472 34.5814 22.8472C33.5807 22.8472 32.6727 23.2471 32.0051 23.8939C31.9324 23.5747 31.8319 23.2661 31.7046 22.9713C31.7805 22.9674 31.8566 22.9648 31.9285 22.9624C32.2948 22.9505 32.6737 22.9383 33.0228 22.7938C33.385 22.6441 33.6831 22.368 33.9462 22.1244C34.153 21.933 34.4361 21.6707 34.5813 21.6707C34.7267 21.6707 35.01 21.9329 35.2169 22.1245C35.4798 22.368 35.7778 22.6439 36.1395 22.7936C36.4887 22.9383 36.8678 22.9506 37.2342 22.9625C37.539 22.9725 37.9184 22.9848 38.0349 23.1012C38.1514 23.2177 38.1637 23.5972 38.1735 23.902C38.1855 24.2684 38.1978 24.6473 38.3424 24.9966C38.4921 25.3585 38.7682 25.6565 39.0116 25.9194C39.2032 26.1262 39.4654 26.4094 39.4654 26.5552C39.4654 26.6009 39.4393 26.6604 39.3977 26.7269ZM31.4805 42.7689C31.4805 43.3238 31.0291 43.7752 30.4742 43.7752H17.5261C16.9712 43.7752 16.5198 43.3238 16.5198 42.7689V42.3019C17.5109 42.5161 18.531 42.6258 19.5692 42.6258H28.431C29.4772 42.6258 30.4974 42.512 31.4805 42.2982V42.7689Z" fill="#FFD600"/>
</g>
<defs>
<filter id="filter0_d_5_2" x="0" y="5" width="223.566" height="51.0078" filterUnits="userSpaceOnUse" color-interpolation-filters="sRGB">
<feFlood flood-opacity="0" result="BackgroundImageFix"/>
<feColorMatrix in="SourceAlpha" type="matrix" values="0 0 0 0 0 0 0 0 0 0 0 0 0 0 0 0 0 0 127 0" result="hardAlpha"/>
<feOffset dy="4"/>
<feGaussianBlur stdDeviation="2"/>
<feComposite in2="hardAlpha" operator="out"/>
<feColorMatrix type="matrix" values="0 0 0 0 0 0 0 0 0 0 0 0 0 0 0 0 0 0 0.25 0"/>
<feBlend mode="normal" in2="BackgroundImageFix" result="effect1_dropShadow_5_2"/>
<feBlend mode="normal" in="SourceGraphic" in2="effect1_dropShadow_5_2" result="shape"/>
</filter>
</defs>
</svg>
